<svg width="24" height="25" viewBox="0 0 24 25" fill="none" xmlns="http://www.w3.org/2000/svg">
<g id="Heading 4 &#226;&#134;&#146; SVG" clip-path="url(#clip0_237_1017)">
<path id="Vector" d="M19.584 22.3084C18.1022 22.4533 16.697 22.1014 15.3804 21.1697C15.3517 21.149 15.3229 21.1308 15.2942 21.1101C16.089 22.3524 16.1225 23.5248 16.539 24.1899C15.4043 23.6542 14.4707 22.9813 13.8507 22.0988C13.7574 22.2385 13.7215 22.4171 13.8172 22.6707C13.032 21.9771 12.4312 20.8798 11.9524 19.5107C11.9476 19.5211 11.9452 19.5314 11.9405 19.5392C11.4641 20.8953 10.8656 21.9823 10.0828 22.6707C10.181 22.4171 10.1451 22.2385 10.0493 22.0988C9.42932 22.9813 8.49572 23.6542 7.36104 24.1899C7.77757 23.5274 7.81109 22.3524 8.60584 21.1101C8.56514 21.1386 8.52445 21.1697 8.48615 21.193C7.17911 22.104 5.78829 22.4508 4.31848 22.3084C4.56983 22.2127 4.73979 22.0548 4.79964 21.8219C2.34117 21.9513 1.12031 21.061 0 20.0879C0.0406952 20.0905 0.0837842 20.0956 0.126873 20.0982C1.57993 20.1707 3.97616 18.755 6.62853 18.0951C6.61656 18.0899 6.6022 18.0847 6.59262 18.0795C3.61709 16.8683 1.9031 14.935 1.01977 12.5307C1.17537 12.7145 1.35012 12.8077 1.54402 12.8103C0.608034 9.96344 0.677455 7.96029 1.37885 6.48768C1.49375 8.24756 6.66204 9.87544 8.90028 13.5867C8.89071 13.5427 8.88113 13.5039 8.87395 13.4599C8.32576 10.9986 8.47418 8.26309 9.16121 5.32047C9.20908 5.98301 9.31202 6.41263 9.69982 6.68179C9.91048 4.08079 10.643 1.98965 11.95 0.45752C13.2571 1.98965 13.9896 4.08079 14.2002 6.68179C14.588 6.41263 14.691 5.98301 14.7388 5.32047C15.4378 8.31485 15.5791 11.0944 14.9974 13.5867C15.0309 13.5271 15.0668 13.4728 15.1027 13.4133C15.1051 13.4107 15.1051 13.4081 15.1075 13.4029C17.2691 10.0307 21.8318 8.41061 22.4494 6.7879V6.78531C22.4901 6.68696 22.5116 6.58603 22.5188 6.48509C23.2202 7.9577 23.2896 9.96085 22.3536 12.8077C22.5475 12.8025 22.7247 12.7093 22.8779 12.5282C21.9898 14.9428 20.2662 16.8813 17.2691 18.0925C17.3074 18.1028 17.3457 18.1132 17.3816 18.1209C20.0651 18.8145 22.4781 20.2483 23.8977 20.0853C22.7797 21.0584 21.5589 21.9487 19.098 21.8193C19.1627 22.0574 19.3302 22.2127 19.584 22.3084Z" fill="#258F67"/>
<path id="Vector_2" d="M12.3627 16.8631C12.3627 16.8631 9.45119 17.5687 6.85934 17.7884C3.80271 16.5788 2.04202 14.648 1.13462 12.2469C1.29446 12.4304 1.47398 12.5234 1.67316 12.526C0.711666 9.6829 0.782979 7.68235 1.50348 6.21167C1.50594 6.21167 1.79857 15.7931 12.3627 16.8631Z" fill="#214842"/>
<path id="Vector_3" d="M11.7116 16.9763C11.7116 16.9763 10.0667 16.5001 8.77415 13.263C8.25027 10.7884 8.39211 8.03798 9.04868 5.07935C9.09443 5.7455 9.1928 6.17745 9.56341 6.44807C9.76473 3.83293 10.4648 1.7304 11.7138 0.189941C11.2174 6.57818 10.904 12.6723 11.7116 16.9763Z" fill="#214842"/>
<path id="Vector_4" d="M22.3487 6.74194C20.8856 12.9908 17.0985 15.9799 12.0293 17.161C13.0596 16.8592 14.1769 15.2125 15.1296 13.4018C15.132 13.3992 15.132 13.3966 15.1343 13.3914C17.2608 10.0017 21.7419 8.3757 22.3487 6.74194Z" fill="#214842"/>
<path id="Vector_5" d="M23.9996 19.5903C19.2292 20.1009 15.026 19.5855 12.0508 16.8716C12.0508 16.8716 14.9231 17.6556 17.4842 17.7707C20.1675 18.4108 22.5778 19.7413 23.9996 19.5903Z" fill="#214842"/>
<path id="Vector_6" d="M16.4192 23.7994C14.6332 21.6995 13.2143 19.3671 12.0742 16.8533C13.1894 18.2482 14.3113 19.6609 15.3222 20.8181C15.295 20.7977 15.2678 20.7798 15.2406 20.7594C15.9931 21.9882 16.0249 23.1454 16.4192 23.7994Z" fill="#214842"/>
<path id="Vector_7" d="M12.2037 19.3356C11.7042 20.6742 11.0767 21.7472 10.256 22.4267C10.3589 22.1763 10.3213 22.0001 10.2209 21.8621C9.57084 22.7332 8.59201 23.3975 7.40234 23.9263C9.34998 21.7344 10.9713 19.425 12.2137 16.9802C12.3342 17.4375 12.299 18.3444 12.2037 19.3356Z" fill="#214842"/>
<path id="Vector_8" d="M12.0016 17.0859C11.9154 17.1925 10.0093 19.5048 8.54143 21.1434C7.23401 22.059 5.84277 22.4075 4.37251 22.2645C4.62394 22.1682 4.79395 22.0096 4.85382 21.7755C2.39461 21.9055 1.17339 21.0108 0.0527344 20.0328C0.0934418 20.0354 0.136544 20.0406 0.179646 20.0432C4.51858 20.4126 8.54862 19.7103 12.0016 17.0859Z" fill="#214842"/>
<path id="Vector_9" d="M12.811 16.9892C12.811 17.4689 12.4464 17.8574 11.9963 17.8574C11.5462 17.8574 11.1816 17.4689 11.1816 16.9892C11.1816 16.5095 11.5462 16.1208 11.9963 16.1208C12.4464 16.1208 12.811 16.5095 12.811 16.9892Z" fill="#214842"/>
</g>
<defs>
<clipPath id="clip0_237_1017">
<rect width="24" height="24" fill="white" transform="translate(0 0.189941)"/>
</clipPath>
</defs>
</svg>
