<svg width="18" height="16" viewBox="0 0 18 16" fill="none" xmlns="http://www.w3.org/2000/svg">
<path d="M18 6.75V7.25C18 7.45833 17.9271 7.63542 17.7812 7.78125C17.6354 7.92708 17.4583 8 17.25 8H17L16.1875 13.7188C16.1354 14.0833 15.9688 14.3854 15.6875 14.625C15.4062 14.875 15.0781 15 14.7031 15H3.29688C2.92188 15 2.59375 14.8802 2.3125 14.6406C2.03125 14.3906 1.86458 14.0833 1.8125 13.7188L1 8H0.75C0.541667 8 0.364583 7.92708 0.21875 7.78125C0.0729167 7.63542 0 7.45833 0 7.25V6.75C0 6.54167 0.0729167 6.36458 0.21875 6.21875C0.364583 6.07292 0.541667 6 0.75 6H2.85938L6.1875 1.40625C6.35417 1.1875 6.57292 1.05729 6.84375 1.01562C7.11458 0.973958 7.36458 1.03125 7.59375 1.1875C7.8125 1.35417 7.94271 1.57292 7.98438 1.84375C8.02604 2.11458 7.96875 2.36458 7.8125 2.59375L5.32812 6H12.6719L10.1875 2.59375C10.0312 2.36458 9.97396 2.11458 10.0156 1.84375C10.0573 1.57292 10.1875 1.35417 10.4062 1.1875C10.6354 1.03125 10.8854 0.973958 11.1562 1.01562C11.4271 1.05729 11.6458 1.1875 11.8125 1.40625L15.1406 6H17.25C17.4583 6 17.6354 6.07292 17.7812 6.21875C17.9271 6.36458 18 6.54167 18 6.75ZM9.75 12.25V8.75C9.75 8.54167 9.67708 8.36458 9.53125 8.21875C9.38542 8.07292 9.20833 8 9 8C8.79167 8 8.61458 8.07292 8.46875 8.21875C8.32292 8.36458 8.25 8.54167 8.25 8.75V12.25C8.25 12.4583 8.32292 12.6354 8.46875 12.7812C8.61458 12.9271 8.79167 13 9 13C9.20833 13 9.38542 12.9271 9.53125 12.7812C9.67708 12.6354 9.75 12.4583 9.75 12.25ZM13.25 12.25V8.75C13.25 8.54167 13.1771 8.36458 13.0312 8.21875C12.8854 8.07292 12.7083 8 12.5 8C12.2917 8 12.1146 8.07292 11.9688 8.21875C11.8229 8.36458 11.75 8.54167 11.75 8.75V12.25C11.75 12.4583 11.8229 12.6354 11.9688 12.7812C12.1146 12.9271 12.2917 13 12.5 13C12.7083 13 12.8854 12.9271 13.0312 12.7812C13.1771 12.6354 13.25 12.4583 13.25 12.25ZM6.25 12.25V8.75C6.25 8.54167 6.17708 8.36458 6.03125 8.21875C5.88542 8.07292 5.70833 8 5.5 8C5.29167 8 5.11458 8.07292 4.96875 8.21875C4.82292 8.36458 4.75 8.54167 4.75 8.75V12.25C4.75 12.4583 4.82292 12.6354 4.96875 12.7812C5.11458 12.9271 5.29167 13 5.5 13C5.70833 13 5.88542 12.9271 6.03125 12.7812C6.17708 12.6354 6.25 12.4583 6.25 12.25Z" fill="#214842"/>
</svg>
