<?xml version="1.0" encoding="UTF-8"?>
<svg xmlns="http://www.w3.org/2000/svg" xmlns:xlink="http://www.w3.org/1999/xlink"  width="60" height="60" viewBox="0 0 192 192" version="1.1">
<g>
<path style="fill-rule:nonzero;fill-opacity:1;stroke-width:5;stroke-linecap:butt;stroke-linejoin:miter;stroke:rgb(93.72549%,76.470588%,40.784314%);stroke-opacity:1;stroke-miterlimit:4;" fill="#eec268" d="M 249.6875 128.75 C 249.6875 196.578125 194.703125 251.5625 126.875 251.5625 C 59.046875 251.5625 4.0625 196.578125 4.0625 128.75 C 4.0625 60.921875 59.046875 5.9375 126.875 5.9375 C 194.703125 5.9375 249.6875 60.921875 249.6875 128.75 " transform="matrix(0.75,0,0,0.75,0,0)"/>
<path style="fill-rule:nonzero;fill-opacity:1;stroke-width:5;stroke-linecap:butt;stroke-linejoin:miter;stroke:rgb(93.72549%,76.470588%,40.784314%);stroke-opacity:1;stroke-miterlimit:4;" fill="#eec268" d="M 199.34375 89 C 199.34375 93.125 193.15625 93.125 193.15625 89 C 193.15625 84.875 199.34375 84.875 199.34375 89 " transform="matrix(0.75,0,0,0.75,0,0)"/>
<path style="fill-rule:nonzero;fill-opacity:1;stroke-width:1;stroke-linecap:butt;stroke-linejoin:miter;stroke:rgb(0%,0%,0%);stroke-opacity:1;stroke-miterlimit:4;" fill="#204742" d="M 123.265625 75.1875 C 107.859375 76.421875 93.942708 84.479167 87.541667 95.828125 C 84.572917 101.135417 83.244792 107.3125 83.859375 112.848958 C 84.369792 117.515625 85.703125 121.541667 89.385417 129.869792 C 91.791667 135.223958 93.479167 139.661458 94.041667 141.994792 C 95.630208 149.088542 95.114583 161.395833 92.557292 175.859375 C 92.098958 178.604167 91.6875 181.078125 91.6875 181.442708 C 91.6875 181.854167 91.890625 182.21875 92.354167 182.541667 C 93.020833 183 93.119792 183 115.484375 183 C 137.848958 183 137.953125 183 138.614583 182.541667 C 139.484375 181.947917 139.484375 180.9375 138.614583 179.75 C 137.947917 178.927083 137.895833 178.651042 137.848958 176.364583 C 137.744792 173.255208 138.307292 169.317708 139.130208 167.942708 C 139.895833 166.567708 140.666667 166.114583 142.864583 165.885417 C 145.421875 165.609375 147.932292 165.838542 153.5625 166.848958 C 158.729167 167.8125 160.0625 167.901042 161.802083 167.395833 C 163.390625 166.984375 164.411458 166.25 165.026042 165.151042 C 165.536458 164.328125 165.588542 163.822917 165.588542 161.260417 C 165.588542 158.697917 165.640625 158.239583 166.151042 157.369792 C 166.765625 156.270833 167.583333 155.723958 168.453125 155.723958 C 169.479167 155.677083 171.010417 154.947917 171.880208 154.078125 C 173.416667 152.520833 173.567708 150.28125 172.338542 147.901042 C 171.46875 146.208333 171.520833 145.385417 172.541667 144.192708 C 173.104167 143.505208 173.921875 142.958333 175.354167 142.364583 C 179.447917 140.578125 181.036458 138.0625 179.651042 135.59375 C 179.395833 135.088542 177.5 133.125 175.453125 131.291667 C 172.84375 128.864583 171.666667 127.583333 171.463542 127.036458 C 171.3125 126.578125 171.104167 124.609375 171.052083 122.6875 C 170.947917 119.619792 171 118.796875 171.510417 116.598958 C 171.96875 114.494792 172.072917 113.348958 172.072917 110.098958 C 172.072917 105.708333 171.765625 103.921875 170.333333 100.03125 C 164.395833 83.921875 144.588542 73.489583 123.25 75.182292 Z M 131.609375 89.921875 C 132.020833 90.286458 132.276042 90.791667 132.276042 91.203125 C 132.276042 91.614583 130.994792 94.3125 129 98.067708 C 127.208333 101.453125 125.723958 104.291667 125.723958 104.380208 C 125.723958 104.473958 127.515625 104.744792 129.713542 104.973958 C 133.348958 105.338542 133.703125 105.432292 134.369792 105.979167 C 134.78125 106.34375 135.036458 106.848958 135.036458 107.213542 C 135.036458 108.083333 127.104167 123.046875 126.338542 123.6875 C 124.958333 124.786458 122.703125 123.963542 122.703125 122.40625 C 122.703125 121.994792 123.984375 119.296875 125.979167 115.494792 C 127.770833 112.109375 129.255208 109.223958 129.255208 109.135417 C 129.255208 109.041667 127.463542 108.770833 125.3125 108.541667 C 121.630208 108.177083 121.270833 108.083333 120.65625 107.489583 C 120.244792 107.125 119.9375 106.619792 119.9375 106.255208 C 119.9375 105.432292 127.869792 90.421875 128.6875 89.734375 C 129.505208 89.140625 130.734375 89.1875 131.604167 89.916667 Z M 103.921875 90.380208 L 104.536458 90.927083 L 104.536458 105.572917 L 108.21875 104.427083 C 110.265625 103.833333 112.208333 103.328125 112.515625 103.328125 C 112.822917 103.328125 113.4375 103.604167 113.84375 103.96875 L 114.5625 104.609375 L 114.5625 113.213542 C 114.5625 122.317708 114.510417 123.005208 113.333333 123.557292 C 112.463542 123.96875 111.286458 123.833333 110.619792 123.234375 L 110.005208 122.6875 L 110.005208 115.458333 C 110.005208 110.651042 109.953125 108.276042 109.75 108.276042 C 109.598958 108.276042 107.854167 108.734375 105.859375 109.328125 C 102.020833 110.473958 101.354167 110.515625 100.432292 109.604167 C 99.921875 109.098958 99.921875 108.916667 99.973958 99.994792 L 100.026042 90.890625 L 100.744792 90.34375 C 101.817708 89.609375 103.098958 89.609375 103.916667 90.390625 Z M 156.276042 91.15625 C 157.505208 92.484375 157.401042 92.619792 151.71875 98.567708 C 148.854167 101.541667 146.651042 104.104167 146.755208 104.197917 C 146.859375 104.291667 148.442708 104.885417 150.234375 105.526042 C 152.026042 106.166667 153.765625 106.901042 154.072917 107.130208 C 154.739583 107.677083 154.994792 108.458333 154.6875 109.145833 C 154.484375 109.604167 144.760417 119.989583 142.505208 122.09375 C 141.739583 122.869792 141.328125 123.057292 140.661458 123.057292 C 139.072917 123.057292 137.848958 121.5 138.5625 120.3125 C 138.713542 120.036458 141.067708 117.473958 143.78125 114.682292 C 146.494792 111.84375 148.541667 109.421875 148.489583 109.328125 C 148.385417 109.234375 146.802083 108.59375 145.010417 107.953125 C 143.21875 107.3125 141.479167 106.536458 141.119792 106.260417 C 140.354167 105.572917 140.302083 104.338542 141.067708 103.604167 C 141.322917 103.328125 144.1875 100.354167 147.364583 96.96875 C 150.536458 93.583333 153.401042 90.744792 153.661458 90.609375 C 154.479167 90.244792 155.557292 90.427083 156.270833 91.15625 Z M 156.276042 91.15625 " transform="matrix(0.75,0,0,0.75,0,0)"/>
</g>
</svg>
