<svg width="17" height="17" viewBox="0 0 17 17" fill="none" xmlns="http://www.w3.org/2000/svg">
<g clip-path="url(#clip0_9_665)">
<path d="M7.94995 0.310059C6.87703 0.310059 5.87183 0.513184 4.93433 0.919434C3.99683 1.32568 3.17912 1.87777 2.4812 2.57568C1.77287 3.28402 1.21558 4.10693 0.809326 5.04443C0.403076 5.98193 0.199951 6.98714 0.199951 8.06006C0.199951 9.13298 0.403076 10.1382 0.809326 11.0757C1.21558 12.0132 1.76766 12.8309 2.46558 13.5288C3.17391 14.2371 3.99683 14.7944 4.93433 15.2007C5.87183 15.6069 6.87703 15.8101 7.94995 15.8101C9.02287 15.8101 10.0281 15.6069 10.9656 15.2007C11.9031 14.7944 12.7208 14.2424 13.4187 13.5444C14.127 12.8361 14.6843 12.0132 15.0906 11.0757C15.4968 10.1382 15.7 9.13298 15.7 8.06006C15.7 6.98714 15.4968 5.98193 15.0906 5.04443C14.6843 4.10693 14.1322 3.28923 13.4343 2.59131C12.726 1.88298 11.9031 1.32568 10.9656 0.919434C10.0281 0.513184 9.02287 0.310059 7.94995 0.310059ZM10.8406 10.0913L10.2156 10.8726C10.1739 10.9351 10.1218 10.9819 10.0593 11.0132C9.98641 11.0444 9.90828 11.0601 9.82495 11.0601C9.76245 11.0601 9.70516 11.0496 9.65308 11.0288C9.60099 11.008 9.55412 10.9819 9.51245 10.9507L7.4187 9.40381C7.27287 9.27881 7.15828 9.13298 7.07495 8.96631C6.99162 8.79964 6.94995 8.61735 6.94995 8.41943V3.56006C6.94995 3.42464 6.99683 3.31006 7.09058 3.21631C7.19474 3.11214 7.31453 3.06006 7.44995 3.06006H8.44995C8.58537 3.06006 8.69995 3.10693 8.7937 3.20068C8.89787 3.30485 8.94995 3.42464 8.94995 3.56006V8.06006L10.7625 9.38818C10.825 9.42985 10.8718 9.48193 10.9031 9.54443C10.9343 9.61735 10.95 9.69548 10.95 9.77881C10.95 9.84131 10.9395 9.8986 10.9187 9.95068C10.8979 10.0028 10.8718 10.0496 10.8406 10.0913Z" fill="#214842"/>
</g>
<defs>
<clipPath id="clip0_9_665">
<rect width="16" height="16" fill="white" transform="matrix(1 0 0 -1 0.199951 16.0601)"/>
</clipPath>
</defs>
</svg>
