<?xml version="1.0" encoding="UTF-8"?>
<svg xmlns="http://www.w3.org/2000/svg" xmlns:xlink="http://www.w3.org/1999/xlink"  width="60" height="60" viewBox="0 0 192 192" version="1.1">
<g>
<path style="fill-rule:nonzero;fill-opacity:1;stroke-width:5;stroke-linecap:butt;stroke-linejoin:miter;stroke:rgb(93.72549%,76.470588%,40.784314%);stroke-opacity:1;stroke-miterlimit:4;" fill="#eec268" d="M 249.015625 128 C 249.015625 194.833333 194.833333 249.015625 128 249.015625 C 61.166667 249.015625 6.984375 194.833333 6.984375 128 C 6.984375 61.166667 61.166667 6.984375 128 6.984375 C 194.833333 6.984375 249.015625 61.166667 249.015625 128 " transform="matrix(0.75,0,0,0.75,0,0)"/>
<path style="fill-rule:nonzero;fill-opacity:1;stroke-width:1;stroke-linecap:butt;stroke-linejoin:miter;stroke:rgb(12.941176%,28.235294%,25.882353%);stroke-opacity:1;stroke-miterlimit:4;" fill="#204742" d="M 167.927083 124.645833 C 164.963542 119.65625 169.15625 116.692708 169.458333 114.130208 C 170.734375 102.265625 166.1875 94.984375 160.005208 89.234375 C 149.78125 79.75 136.598958 77.953125 128.010417 78 C 105.932292 78.135417 97.036458 84.291667 90.239583 90.942708 C 76.182292 104.692708 79.151042 116.828125 79.151042 116.828125 C 79.458333 124.020833 90.75 137.09375 90.75 137.09375 C 99.744792 148.463542 95.296875 157.223958 95.296875 157.223958 C 113.442708 160.817708 128.3125 184.098958 128.3125 184.098958 C 128.979167 180.640625 137.666667 166.125 137.666667 166.125 C 141.296875 162.078125 147.427083 163.520833 150.75 163.880208 C 160.203125 164.911458 162.557292 162.442708 162.557292 162.442708 C 164.604167 161.317708 163.630208 156.692708 163.630208 156.692708 C 162.864583 154.3125 164.088542 153.140625 164.90625 152.197917 C 167 149.635417 165.776042 148.46875 165.776042 148.46875 C 165.109375 147.75 165.572917 147.34375 165.572917 147.34375 C 167.875 146.671875 168.026042 145.588542 168.026042 145.588542 L 167.973958 141.901042 C 167.614583 139.385417 168.895833 139.203125 168.895833 139.203125 C 174.109375 139.114583 174.005208 136.145833 174.005208 136.145833 C 174.260417 134.4375 167.921875 124.640625 167.921875 124.640625 Z M 147.177083 110.536458 C 145.083333 118.895833 126.020833 129.411458 126.020833 129.411458 C 126.020833 129.411458 106.958333 118.895833 104.864583 110.536458 C 104.453125 109.505208 104.25 108.380208 104.25 107.213542 C 104.25 103.125 106.807292 99.572917 110.588542 97.729167 C 112.328125 96.875 114.369792 96.380208 116.515625 96.380208 C 120.348958 96.380208 123.723958 97.90625 126.020833 100.291667 C 128.270833 97.911458 131.692708 96.380208 135.473958 96.380208 C 137.619792 96.380208 139.666667 96.875 141.401042 97.729167 C 145.182292 99.572917 147.791667 103.119792 147.791667 107.213542 C 147.791667 108.338542 147.588542 109.458333 147.177083 110.536458 Z M 147.177083 110.536458 " transform="matrix(0.75,0,0,0.75,0,0)"/>
</g>
</svg>
