<svg width="21" height="20" viewBox="0 0 21 20" fill="none" xmlns="http://www.w3.org/2000/svg">
<g clip-path="url(#clip0_9_579)">
<path d="M19.1641 10.8984C18.6302 10.0781 18.0052 9.32943 17.2891 8.65234C16.5729 7.96224 15.7786 7.39583 14.9062 6.95312C15.1276 7.33073 15.2969 7.73438 15.4141 8.16406C15.5312 8.59375 15.5898 9.02995 15.5898 9.47266C15.5898 10.1497 15.4596 10.7943 15.1992 11.4062C14.9388 12.0182 14.5807 12.5456 14.125 12.9883C13.6693 13.444 13.1419 13.8021 12.543 14.0625C11.931 14.3359 11.2799 14.4727 10.5898 14.4727C9.89974 14.4727 9.2487 14.3359 8.63672 14.0625C8.03776 13.8021 7.51042 13.4505 7.05469 13.0078C6.59896 12.5521 6.24089 12.0182 5.98047 11.4062C5.72005 10.7943 5.58984 10.1497 5.58984 9.47266C5.58984 9.02995 5.64844 8.59375 5.76562 8.16406C5.88281 7.73438 6.05208 7.33073 6.27344 6.95312C5.40104 7.39583 4.60677 7.95573 3.89062 8.63281C3.17448 9.32292 2.54948 10.0781 2.01562 10.8984C2.4974 11.6276 3.04427 12.2982 3.65625 12.9102C4.28125 13.5221 4.95182 14.0495 5.66797 14.4922C6.39714 14.9349 7.17839 15.2799 8.01172 15.5273C8.83203 15.7747 9.69141 15.8984 10.5898 15.8984C11.4883 15.8984 12.3477 15.7747 13.168 15.5273C14.0013 15.2799 14.776 14.9349 15.4922 14.4922C16.2214 14.0495 16.8984 13.5221 17.5234 12.9102C18.1354 12.2982 18.6823 11.6276 19.1641 10.8984ZM11.1172 6.60156C11.1172 6.45833 11.0651 6.33464 10.9609 6.23047C10.8568 6.1263 10.7331 6.07422 10.5898 6.07422C9.65234 6.07422 8.85156 6.40625 8.1875 7.07031C7.52344 7.73438 7.19141 8.53516 7.19141 9.47266C7.19141 9.61589 7.24349 9.73958 7.34766 9.84375C7.46484 9.94792 7.59505 10 7.73828 10C7.88151 10 8.00521 9.94792 8.10938 9.84375C8.21354 9.73958 8.26562 9.61589 8.26562 9.47266C8.26562 8.83464 8.49349 8.28776 8.94922 7.83203C9.40495 7.3763 9.95182 7.14844 10.5898 7.14844C10.7331 7.14844 10.8568 7.09635 10.9609 6.99219C11.0651 6.875 11.1172 6.74479 11.1172 6.60156ZM20.5898 10.8984C20.5898 11.0286 20.5703 11.1589 20.5312 11.2891C20.4922 11.4193 20.4401 11.543 20.375 11.6602C19.8542 12.5065 19.2422 13.2747 18.5391 13.9648C17.8229 14.668 17.0417 15.2669 16.1953 15.7617C15.349 16.2565 14.4505 16.6406 13.5 16.9141C12.5495 17.1875 11.5794 17.3242 10.5898 17.3242C9.60026 17.3242 8.63021 17.1875 7.67969 16.9141C6.72917 16.6406 5.83073 16.2565 4.98438 15.7617C4.13802 15.2669 3.35677 14.668 2.64062 13.9648C1.9375 13.2747 1.32552 12.5065 0.804688 11.6602C0.739583 11.543 0.6875 11.4193 0.648438 11.2891C0.609375 11.1589 0.589844 11.0286 0.589844 10.8984C0.589844 10.7552 0.609375 10.6185 0.648438 10.4883C0.6875 10.3581 0.739583 10.2344 0.804688 10.1172C1.32552 9.28385 1.9375 8.51562 2.64062 7.8125C3.35677 7.1224 4.13802 6.52995 4.98438 6.03516C5.83073 5.54036 6.72917 5.15625 7.67969 4.88281C8.63021 4.60938 9.60026 4.47266 10.5898 4.47266C11.5794 4.47266 12.5495 4.60938 13.5 4.88281C14.4505 5.15625 15.349 5.54036 16.1953 6.03516C17.0417 6.52995 17.8229 7.1224 18.5391 7.8125C19.2422 8.51562 19.8542 9.28385 20.375 10.1172C20.4401 10.2344 20.4922 10.3581 20.5312 10.4883C20.5703 10.6185 20.5898 10.7552 20.5898 10.8984Z" fill="#EFC368"/>
</g>
<defs>
<clipPath id="clip0_9_579">
<rect width="20" height="20" fill="white" transform="matrix(1 0 0 -1 0.589844 20)"/>
</clipPath>
</defs>
</svg>
