<svg width="21" height="14" viewBox="0 0 21 14" fill="none" xmlns="http://www.w3.org/2000/svg">
<path d="M19.1641 6.89844C18.6302 6.07812 18.0052 5.32943 17.2891 4.65234C16.5729 3.96224 15.7786 3.39583 14.9062 2.95312C15.1276 3.33073 15.2969 3.73438 15.4141 4.16406C15.5312 4.59375 15.5898 5.02995 15.5898 5.47266C15.5898 6.14974 15.4596 6.79427 15.1992 7.40625C14.9388 8.01823 14.5807 8.54557 14.125 8.98828C13.6693 9.44401 13.1419 9.80208 12.543 10.0625C11.931 10.3359 11.2799 10.4727 10.5898 10.4727C9.89974 10.4727 9.2487 10.3359 8.63672 10.0625C8.03776 9.80208 7.51042 9.45052 7.05469 9.00781C6.59896 8.55208 6.24089 8.01823 5.98047 7.40625C5.72005 6.79427 5.58984 6.14974 5.58984 5.47266C5.58984 5.02995 5.64844 4.59375 5.76562 4.16406C5.88281 3.73438 6.05208 3.33073 6.27344 2.95312C5.40104 3.39583 4.60677 3.95573 3.89062 4.63281C3.17448 5.32292 2.54948 6.07812 2.01562 6.89844C2.4974 7.6276 3.04427 8.29818 3.65625 8.91016C4.28125 9.52214 4.95182 10.0495 5.66797 10.4922C6.39714 10.9349 7.17839 11.2799 8.01172 11.5273C8.83203 11.7747 9.69141 11.8984 10.5898 11.8984C11.4883 11.8984 12.3477 11.7747 13.168 11.5273C14.0013 11.2799 14.776 10.9349 15.4922 10.4922C16.2214 10.0495 16.8984 9.52214 17.5234 8.91016C18.1354 8.29818 18.6823 7.6276 19.1641 6.89844ZM11.1172 2.60156C11.1172 2.45833 11.0651 2.33464 10.9609 2.23047C10.8568 2.1263 10.7331 2.07422 10.5898 2.07422C9.65234 2.07422 8.85156 2.40625 8.1875 3.07031C7.52344 3.73438 7.19141 4.53516 7.19141 5.47266C7.19141 5.61589 7.24349 5.73958 7.34766 5.84375C7.46484 5.94792 7.59505 6 7.73828 6C7.88151 6 8.00521 5.94792 8.10938 5.84375C8.21354 5.73958 8.26562 5.61589 8.26562 5.47266C8.26562 4.83464 8.49349 4.28776 8.94922 3.83203C9.40495 3.3763 9.95182 3.14844 10.5898 3.14844C10.7331 3.14844 10.8568 3.09635 10.9609 2.99219C11.0651 2.875 11.1172 2.74479 11.1172 2.60156ZM20.5898 6.89844C20.5898 7.02865 20.5703 7.15885 20.5312 7.28906C20.4922 7.41927 20.4401 7.54297 20.375 7.66016C19.8542 8.50651 19.2422 9.27474 18.5391 9.96484C17.8229 10.668 17.0417 11.2669 16.1953 11.7617C15.349 12.2565 14.4505 12.6406 13.5 12.9141C12.5495 13.1875 11.5794 13.3242 10.5898 13.3242C9.60026 13.3242 8.63021 13.1875 7.67969 12.9141C6.72917 12.6406 5.83073 12.2565 4.98438 11.7617C4.13802 11.2669 3.35677 10.668 2.64062 9.96484C1.9375 9.27474 1.32552 8.50651 0.804688 7.66016C0.739583 7.54297 0.6875 7.41927 0.648438 7.28906C0.609375 7.15885 0.589844 7.02865 0.589844 6.89844C0.589844 6.75521 0.609375 6.61849 0.648438 6.48828C0.6875 6.35807 0.739583 6.23438 0.804688 6.11719C1.32552 5.28385 1.9375 4.51562 2.64062 3.8125C3.35677 3.1224 4.13802 2.52995 4.98438 2.03516C5.83073 1.54036 6.72917 1.15625 7.67969 0.882812C8.63021 0.609375 9.60026 0.472656 10.5898 0.472656C11.5794 0.472656 12.5495 0.609375 13.5 0.882812C14.4505 1.15625 15.349 1.54036 16.1953 2.03516C17.0417 2.52995 17.8229 3.1224 18.5391 3.8125C19.2422 4.51562 19.8542 5.28385 20.375 6.11719C20.4401 6.23438 20.4922 6.35807 20.5312 6.48828C20.5703 6.61849 20.5898 6.75521 20.5898 6.89844Z" fill="#EFC368"/>
</svg>
