<svg width="11" height="21" viewBox="0 0 11 21" fill="none" xmlns="http://www.w3.org/2000/svg">
<path d="M10.6165 0.723633V3.96777H8.68286C7.93807 3.96777 7.45825 4.13249 7.24341 4.46191C7.01424 4.79134 6.89966 5.21387 6.89966 5.72949V8.0498H10.4875L10.0149 11.6807H6.89966V21.0049H3.13989V11.6807H0.00317383V8.0498H3.13989V5.38574C3.13989 4.59798 3.25448 3.91048 3.48364 3.32324C3.71281 2.72168 4.02791 2.22038 4.42896 1.81934C4.84432 1.40397 5.33846 1.09603 5.91138 0.895508C6.48429 0.680664 7.12166 0.573242 7.82349 0.573242C8.48234 0.573242 9.06958 0.587564 9.58521 0.616211C10.1008 0.65918 10.4446 0.694986 10.6165 0.723633Z" fill="#EFC368"/>
</svg>
