<?xml version="1.0" encoding="UTF-8"?>
<svg xmlns="http://www.w3.org/2000/svg" xmlns:xlink="http://www.w3.org/1999/xlink" width="60" height="60"  viewBox="0 0 192 192" version="1.1">
<g>
<path style="fill-rule:nonzero;fill-opacity:1;stroke-width:5;stroke-linecap:butt;stroke-linejoin:miter;stroke:rgb(93.72549%,76.470588%,40.784314%);stroke-opacity:1;stroke-miterlimit:4;" fill="#eec268" d="M 252.885417 130.5 C 252.885417 198.921875 197.421875 254.385417 129 254.385417 C 60.578125 254.385417 5.114583 198.921875 5.114583 130.5 C 5.114583 62.078125 60.578125 6.614583 129 6.614583 C 197.421875 6.614583 252.885417 62.078125 252.885417 130.5 " transform="matrix(0.75,0,0,0.75,0,0)"/>
<path style="fill-rule:nonzero;fill-opacity:1;stroke-width:1;stroke-linecap:butt;stroke-linejoin:miter;stroke:rgb(0%,0%,0%);stroke-opacity:1;stroke-miterlimit:4;" fill="#204742" d="M 125.78125 70.541667 C 117.828125 71.494792 112.223958 75.619792 109.619792 82.427083 C 108.552083 85.203125 108.338542 86.9375 108.166667 93.489583 C 107.994792 99.390625 107.994792 99.5625 107.567708 99.651042 C 105.6875 99.953125 105.34375 105.8125 107.010417 110.453125 C 107.822917 112.666667 109.40625 115.442708 110.901042 117.223958 C 111.755208 118.223958 112.098958 118.916667 112.739583 120.822917 C 113.59375 123.46875 114.661458 125.510417 116.244792 127.677083 L 117.3125 129.151042 L 115.604167 130.192708 C 113.380208 131.536458 106.026042 135.182292 101.619792 137.088542 C 99.739583 137.958333 98.197917 138.692708 98.286458 138.822917 C 98.369792 138.911458 98.802083 138.994792 99.270833 138.994792 C 100.041667 138.994792 100.213542 139.083333 100.46875 139.645833 C 100.895833 140.515625 102.010417 141.208333 102.90625 141.208333 C 103.421875 141.208333 103.635417 141.338542 103.848958 141.859375 C 104.276042 142.8125 105.390625 143.421875 106.755208 143.421875 C 107.567708 143.421875 107.864583 143.510417 107.864583 143.723958 C 107.864583 144.203125 108.932292 144.984375 109.619792 144.984375 C 110.088542 144.984375 110.260417 145.15625 110.515625 145.635417 C 110.6875 146.026042 111.072917 146.588542 111.458333 146.848958 C 112.567708 147.802083 114.838542 147.5 115.651042 146.286458 C 115.947917 145.854167 115.994792 145.854167 116.807292 146.197917 C 117.322917 146.416667 117.916667 146.5 118.390625 146.416667 C 119.03125 146.286458 119.203125 146.375 119.671875 146.9375 C 119.96875 147.286458 120.401042 147.677083 120.614583 147.71875 C 120.828125 147.807292 121.083333 148.197917 121.213542 148.588542 C 121.385417 149.151042 121.557292 149.328125 122.067708 149.369792 C 122.838542 149.458333 123.307292 149.067708 123.307292 148.416667 C 123.307292 148.114583 123.5625 147.807292 123.947917 147.546875 C 125.229167 146.807292 125.828125 144.989583 125.276042 143.510417 C 125.104167 143.078125 125.145833 142.901042 125.489583 142.598958 C 126.005208 142.166667 126.046875 141.255208 125.572917 140.864583 C 125.276042 140.604167 125.276042 140.515625 125.572917 139.953125 C 125.744792 139.604167 125.916667 139.083333 125.916667 138.78125 C 125.916667 138.432292 126.130208 138.041667 126.557292 137.739583 C 127.796875 136.828125 128.223958 135.182292 127.541667 133.833333 C 127.328125 133.484375 127.244792 133.182292 127.244792 133.182292 C 127.671875 133.010417 128.229167 132.619792 128.401042 132.3125 C 128.697917 131.833333 128.015625 131.052083 127.244792 131.052083 C 126.947917 131.052083 126.432292 130.833333 126.135417 130.619792 C 125.619792 130.229167 125.619792 130.140625 125.880208 129.489583 C 126.052083 129.098958 126.135417 128.317708 126.052083 127.666667 C 125.921875 126.666667 125.96875 126.494792 126.395833 126.364583 C 127.59375 125.885417 128.234375 123.9375 127.59375 122.588542 C 127.25 121.9375 127.296875 121.895833 127.890625 121.375 C 128.703125 120.682292 128.786458 119.380208 128.104167 118.510417 C 127.71875 118.03125 127.677083 117.901042 127.932292 117.119792 C 128.276042 116.166667 129.171875 115.557292 129.171875 116.296875 C 129.171875 116.515625 129.385417 116.989583 129.598958 117.427083 C 129.854167 117.859375 130.026042 118.557292 130.026042 119.119792 C 130.026042 120.161458 130.625 121.333333 131.354167 121.723958 C 131.739583 121.942708 131.78125 122.114583 131.697917 122.635417 C 131.484375 123.505208 131.911458 124.932292 132.59375 125.630208 L 133.151042 126.239583 L 132.421875 127.020833 C 131.864583 127.671875 131.78125 127.973958 131.864583 128.625 C 131.947917 129.057292 132.25 129.666667 132.546875 130.015625 C 132.973958 130.494792 133.104167 130.755208 132.973958 131.1875 C 132.802083 131.75 133.359375 133.140625 133.744792 133.140625 C 133.828125 133.140625 133.916667 133.791667 133.916667 134.661458 C 133.916667 135.53125 133.958333 136.395833 134 136.614583 C 134.083333 137.005208 133.958333 137.046875 133.359375 137.005208 C 132.416667 136.916667 131.989583 137.265625 131.989583 138.088542 C 131.989583 138.567708 132.161458 138.78125 132.505208 139 C 132.848958 139.171875 133.104167 139.5625 133.276042 140.260417 C 133.572917 141.432292 133.572917 141.432292 133.40625 143.385417 C 133.276042 144.557292 133.322917 144.947917 133.791667 145.8125 C 134.135417 146.552083 134.260417 147.203125 134.21875 147.854167 C 134.135417 149.114583 134.859375 149.9375 136.057292 149.9375 C 137.083333 149.9375 137.640625 149.635417 138.026042 148.854167 C 138.453125 148.03125 139.567708 147.770833 140.208333 148.333333 C 140.807292 148.854167 141.916667 148.8125 142.432292 148.203125 C 142.947917 147.552083 142.947917 146.8125 142.348958 146.208333 C 142.005208 145.859375 141.921875 145.557292 142.005208 145.166667 C 142.21875 144.427083 142.776042 144.473958 143.802083 145.296875 C 144.697917 146.036458 145.557292 146.166667 146.197917 145.645833 C 146.541667 145.385417 146.666667 145.385417 147.140625 145.864583 C 147.739583 146.473958 148.723958 146.557292 149.364583 146.083333 C 149.619792 145.911458 150.135417 145.822917 150.692708 145.911458 C 151.463542 146 151.71875 145.911458 152.276042 145.432292 C 152.791667 144.953125 152.916667 144.692708 152.916667 143.828125 C 152.916667 143.177083 153 142.786458 153.171875 142.786458 C 153.770833 142.786458 154.541667 142.265625 154.796875 141.65625 C 155.052083 141.046875 155.052083 141.046875 155.526042 141.484375 C 155.822917 141.744792 156.296875 141.916667 156.895833 141.916667 C 157.666667 141.916667 157.921875 141.786458 158.390625 141.223958 C 158.6875 140.833333 158.947917 140.442708 158.947917 140.3125 C 158.947917 140.182292 159.161458 139.833333 159.375 139.53125 C 160.1875 138.489583 160.015625 138.317708 156.765625 136.927083 C 152.833333 135.234375 145.390625 131.505208 143.255208 130.203125 L 141.546875 129.161458 L 142.614583 127.6875 C 144.197917 125.5625 145.265625 123.479167 146.119792 120.833333 C 146.71875 118.96875 147.104167 118.229167 147.916667 117.276042 C 150.182292 114.588542 151.895833 111.072917 152.578125 107.645833 C 153.390625 103.739583 152.708333 99.921875 151.208333 99.661458 C 150.78125 99.572917 150.739583 99.489583 150.739583 96.885417 C 150.697917 91.244792 150.395833 86.385417 149.885417 84.5625 C 148.515625 79.270833 145.09375 74.973958 140.479167 72.71875 C 136.760417 70.765625 131.03125 69.942708 125.8125 70.546875 Z M 125.78125 70.541667 " transform="matrix(0.75,0,0,0.75,0,0)"/>
<path style="fill-rule:nonzero;fill-opacity:1;stroke-width:1;stroke-linecap:butt;stroke-linejoin:miter;stroke:rgb(0%,0%,0%);stroke-opacity:1;stroke-miterlimit:4;" fill="#204742" d="M 93.151042 140.958333 C 88.619792 143.213542 86.182292 145.817708 83.489583 151.239583 C 81.520833 155.276042 80.28125 159.135417 79.427083 164.34375 C 78.614583 169.03125 78.869792 170.15625 80.96875 171.458333 C 82.807292 172.588542 87.8125 173.802083 95.25 174.885417 C 99.78125 175.536458 99.869792 175.536458 100.083333 174.0625 C 100.255208 173.109375 100.296875 173.0625 100.9375 173.541667 C 101.192708 173.713542 101.75 173.890625 102.21875 173.890625 C 102.901042 173.890625 103.244792 173.71875 103.84375 173.109375 C 104.484375 172.458333 104.614583 172.197917 104.614583 171.328125 C 104.614583 170.026042 105.171875 169.59375 106.625 169.765625 C 107.4375 169.854167 107.692708 169.807292 108.119792 169.416667 C 108.588542 168.9375 108.760417 167.635417 108.375 167.244792 C 108.203125 167.072917 108.375 166.765625 108.84375 166.244792 C 109.572917 165.505208 109.614583 165.463542 110.255208 165.8125 C 110.895833 166.114583 110.9375 166.203125 110.8125 167.072917 C 110.729167 167.8125 110.8125 168.114583 111.197917 168.463542 C 111.838542 169.114583 112.864583 169.072917 113.552083 168.375 C 114.234375 167.682292 114.28125 166.901042 113.59375 166.078125 C 113.125 165.515625 113.125 165.385417 113.380208 164.994792 C 113.552083 164.776042 113.677083 164.213542 113.677083 163.734375 C 113.677083 162.994792 113.760417 162.911458 114.317708 162.822917 C 114.833333 162.734375 115 162.864583 115.213542 163.255208 C 115.557292 164.036458 116.921875 163.994792 117.265625 163.213542 C 117.5625 162.5625 117.182292 161.520833 116.666667 161.520833 C 116.411458 161.520833 116.322917 161.260417 116.322917 160.651042 C 116.322917 159.911458 116.453125 159.739583 116.880208 159.520833 C 117.651042 159.171875 117.651042 158 116.880208 157.65625 C 116.583333 157.526042 116.239583 157.09375 116.109375 156.703125 C 115.979167 156.3125 115.682292 155.791667 115.46875 155.572917 C 115.213542 155.354167 115.041667 154.963542 115.041667 154.75 C 115.041667 153.927083 114.401042 152.796875 113.671875 152.322917 C 113.114583 151.932292 112.6875 151.890625 111.703125 151.932292 C 110.505208 152.020833 110.421875 151.973958 110.421875 151.5 C 110.421875 150.848958 109.651042 150.109375 108.96875 150.109375 C 108.5 150.109375 108.411458 149.979167 108.411458 149.458333 C 108.411458 147.854167 106.614583 146.421875 104.90625 146.640625 C 104.09375 146.770833 103.838542 146.682292 103.28125 146.208333 C 102.9375 145.90625 102.510417 145.645833 102.427083 145.645833 C 102.296875 145.645833 102.213542 145.34375 102.213542 144.994792 C 102.213542 144.041667 101.572917 143.34375 100.71875 143.34375 C 100.119792 143.34375 99.989583 143.255208 99.989583 142.822917 C 99.989583 142.520833 99.645833 141.911458 99.135417 141.348958 C 98.40625 140.567708 98.151042 140.4375 97.166667 140.307292 C 96.526042 140.265625 95.96875 140.088542 95.885417 140.005208 C 95.630208 139.744792 95.5 139.786458 93.151042 140.958333 Z M 93.151042 140.958333 " transform="matrix(0.75,0,0,0.75,0,0)"/>
<path style="fill-rule:nonzero;fill-opacity:1;stroke-width:1;stroke-linecap:butt;stroke-linejoin:miter;stroke:rgb(0%,0%,0%);stroke-opacity:1;stroke-miterlimit:4;" fill="#000000" d="M 128.302083 140.697917 C 127.833333 141.21875 127.833333 142.390625 128.260417 142.739583 C 128.557292 143 128.557292 143.088542 128.260417 143.432292 C 127.703125 144.041667 127.916667 145.036458 128.6875 145.296875 C 129.203125 145.46875 129.369792 145.427083 129.713542 144.994792 C 129.96875 144.692708 130.098958 144.34375 130.010417 144.125 C 129.927083 143.953125 129.838542 143.692708 129.755208 143.515625 C 129.671875 143.296875 129.755208 143.166667 129.96875 143.166667 C 130.78125 143.166667 131.036458 141.255208 130.354167 140.651042 C 129.838542 140.171875 128.729167 140.21875 128.302083 140.692708 Z M 128.302083 140.697917 " transform="matrix(0.75,0,0,0.75,0,0)"/>
<path style="fill-rule:nonzero;fill-opacity:1;stroke-width:1;stroke-linecap:butt;stroke-linejoin:miter;stroke:rgb(0%,0%,0%);stroke-opacity:1;stroke-miterlimit:4;" fill="#204742" d="M 163.619792 140.744792 C 163.489583 141.005208 163.40625 141.307292 163.40625 141.526042 C 163.40625 141.828125 163.276042 141.828125 162.510417 141.526042 C 160.84375 140.963542 159.005208 142.005208 158.619792 143.697917 C 158.489583 144.307292 158.40625 144.348958 157.510417 144.348958 C 156.484375 144.348958 155.15625 144.911458 154.515625 145.609375 C 154 146.171875 153.447917 147.5625 153.447917 148.296875 C 153.447917 148.859375 153.364583 148.90625 152.677083 148.90625 C 152.25 148.90625 151.78125 149.036458 151.567708 149.208333 C 151.354167 149.380208 150.625 149.557292 149.901042 149.557292 C 148.875 149.598958 148.447917 149.729167 147.807292 150.208333 C 146.953125 150.859375 146.354167 151.859375 146.354167 152.59375 C 146.354167 152.895833 146.223958 153.026042 145.885417 153.026042 C 144.817708 153.026042 143.963542 153.895833 143.916667 154.979167 C 143.916667 155.671875 143.875 155.71875 143.0625 155.71875 C 141.479167 155.71875 140.411458 157.369792 141.140625 158.666667 C 141.484375 159.276042 141.484375 159.317708 140.96875 159.838542 C 140.328125 160.489583 140.286458 160.921875 140.838542 161.53125 C 141.354167 162.052083 141.994792 162.09375 142.463542 161.661458 C 142.635417 161.489583 143.104167 161.3125 143.53125 161.3125 C 144.260417 161.3125 144.302083 161.354167 144.385417 162.223958 C 144.46875 162.963542 144.34375 163.223958 143.958333 163.567708 C 143.317708 164.130208 143.276042 165.348958 143.828125 165.864583 C 144.427083 166.427083 145.536458 166.34375 146.010417 165.734375 C 146.354167 165.255208 146.479167 165.255208 147.380208 165.432292 C 148.40625 165.651042 148.40625 165.651042 148.40625 166.5625 C 148.447917 167.385417 148.364583 167.515625 147.807292 167.734375 C 146.567708 168.213542 147.338542 170.25 148.619792 169.947917 C 148.916667 169.859375 149.21875 169.645833 149.348958 169.46875 C 149.432292 169.208333 149.645833 169.338542 150.244792 170.03125 C 151.140625 171.072917 152.125 171.421875 153.322917 171.161458 C 153.791667 171.03125 154.21875 170.942708 154.265625 170.942708 C 154.307292 170.942708 154.520833 171.244792 154.651042 171.59375 C 155.166667 172.765625 156.661458 173.244792 158.03125 172.635417 C 158.286458 172.505208 158.416667 172.677083 158.630208 173.375 C 158.973958 174.505208 160 175.416667 160.854167 175.286458 C 161.197917 175.197917 163.161458 174.895833 165.213542 174.59375 C 171.96875 173.552083 176.671875 172.338542 178.296875 171.166667 C 180.005208 169.90625 180.177083 168.822917 179.453125 164.3125 C 178.598958 159.192708 177.359375 155.286458 175.390625 151.255208 C 172.78125 146.046875 170.260417 143.270833 166.197917 141.1875 C 164.276042 140.1875 163.973958 140.145833 163.630208 140.755208 Z M 163.619792 140.744792 " transform="matrix(0.75,0,0,0.75,0,0)"/>
<path style="fill-rule:nonzero;fill-opacity:1;stroke-width:1;stroke-linecap:butt;stroke-linejoin:miter;stroke:rgb(0%,0%,0%);stroke-opacity:1;stroke-miterlimit:4;" fill="#000000" d="M 126.421875 147.510417 C 126.291667 147.640625 126.166667 147.942708 126.166667 148.161458 C 126.166667 148.984375 126.421875 149.244792 127.192708 149.244792 C 127.791667 149.244792 128.005208 149.114583 128.135417 148.723958 C 128.520833 147.770833 127.151042 146.770833 126.427083 147.510417 Z M 126.421875 147.510417 " transform="matrix(0.75,0,0,0.75,0,0)"/>
<path style="fill-rule:nonzero;fill-opacity:1;stroke-width:1;stroke-linecap:butt;stroke-linejoin:miter;stroke:rgb(0%,0%,0%);stroke-opacity:1;stroke-miterlimit:4;" fill="#000000" d="M 115.6875 148.901042 C 114.619792 149.942708 115.260417 151.458333 116.755208 151.458333 C 117.697917 151.458333 118.25 150.895833 118.25 149.9375 C 118.208333 148.505208 116.666667 147.854167 115.682292 148.895833 Z M 115.6875 148.901042 " transform="matrix(0.75,0,0,0.75,0,0)"/>
<path style="fill-rule:nonzero;fill-opacity:1;stroke-width:1;stroke-linecap:butt;stroke-linejoin:miter;stroke:rgb(0%,0%,0%);stroke-opacity:1;stroke-miterlimit:4;" fill="#000000" d="M 134.203125 151.677083 C 133.989583 151.9375 133.859375 152.369792 133.90625 152.760417 C 133.947917 153.239583 134.119792 153.411458 134.71875 153.630208 C 135.104167 153.760417 135.447917 153.979167 135.447917 154.109375 C 135.447917 154.671875 136.302083 155.28125 137.114583 155.28125 C 138.010417 155.28125 138.78125 154.630208 138.78125 153.848958 C 138.78125 152.979167 137.885417 152.067708 137.026042 152.067708 C 136.598958 152.067708 136.130208 151.895833 135.869792 151.635417 C 135.3125 151.15625 134.713542 151.15625 134.203125 151.677083 Z M 134.203125 151.677083 " transform="matrix(0.75,0,0,0.75,0,0)"/>
<path style="fill-rule:nonzero;fill-opacity:1;stroke-width:1;stroke-linecap:butt;stroke-linejoin:miter;stroke:rgb(0%,0%,0%);stroke-opacity:1;stroke-miterlimit:4;" fill="#000000" d="M 116.84375 154.411458 C 116.375 154.671875 116.328125 155.713542 116.713542 156.145833 C 116.885417 156.317708 117.229167 156.40625 117.567708 156.40625 C 117.994792 156.40625 118.208333 156.578125 118.421875 156.96875 C 118.890625 158.052083 120.6875 157.921875 121.114583 156.75 C 121.583333 155.536458 120.473958 154.364583 119.234375 154.796875 C 118.765625 154.96875 118.505208 154.927083 118.208333 154.578125 C 117.739583 154.145833 117.395833 154.098958 116.838542 154.40625 Z M 116.84375 154.411458 " transform="matrix(0.75,0,0,0.75,0,0)"/>
<path style="fill-rule:nonzero;fill-opacity:1;stroke-width:1;stroke-linecap:butt;stroke-linejoin:miter;stroke:rgb(0%,0%,0%);stroke-opacity:1;stroke-miterlimit:4;" fill="#000000" d="M 138.307292 163.041667 C 138.052083 163.390625 137.838542 163.864583 137.838542 164.125 C 137.838542 164.385417 137.625 164.776042 137.411458 165.036458 C 136.854167 165.557292 136.854167 166.640625 137.369792 166.947917 C 138.140625 167.338542 138.697917 167.208333 139.125 166.515625 C 139.338542 166.125 139.723958 165.776042 140.020833 165.692708 C 140.276042 165.604167 140.661458 165.34375 140.833333 165.083333 C 141.989583 163.348958 139.552083 161.4375 138.3125 163.041667 Z M 138.307292 163.041667 " transform="matrix(0.75,0,0,0.75,0,0)"/>
<path style="fill-rule:nonzero;fill-opacity:1;stroke-width:1;stroke-linecap:butt;stroke-linejoin:miter;stroke:rgb(0%,0%,0%);stroke-opacity:1;stroke-miterlimit:4;" fill="#000000" d="M 125.395833 164.953125 C 124.239583 165.864583 124.96875 167.729167 126.421875 167.557292 C 127.916667 167.385417 128.34375 165.515625 127.020833 164.822917 C 126.208333 164.390625 126.125 164.390625 125.395833 164.953125 Z M 125.395833 164.953125 " transform="matrix(0.75,0,0,0.75,0,0)"/>
<path style="fill-rule:nonzero;fill-opacity:1;stroke-width:1;stroke-linecap:butt;stroke-linejoin:miter;stroke:rgb(0%,0%,0%);stroke-opacity:1;stroke-miterlimit:4;" fill="#000000" d="M 116.286458 165.166667 C 116.114583 165.338542 116.03125 165.6875 116.03125 166.036458 C 116.03125 166.817708 116.416667 167.166667 117.1875 167.166667 C 117.572917 167.166667 117.916667 166.994792 118.171875 166.604167 C 118.515625 166.083333 118.515625 165.994792 118.171875 165.473958 C 117.744792 164.864583 116.760417 164.692708 116.291667 165.171875 Z M 116.286458 165.166667 " transform="matrix(0.75,0,0,0.75,0,0)"/>
<path style="fill-rule:nonzero;fill-opacity:1;stroke-width:1;stroke-linecap:butt;stroke-linejoin:miter;stroke:rgb(0%,0%,0%);stroke-opacity:1;stroke-miterlimit:4;" fill="#204742" d="M 117.911458 168.729167 C 117.3125 169.208333 117.140625 170.161458 117.567708 170.984375 C 117.78125 171.375 117.739583 171.416667 116.713542 171.416667 C 115.817708 171.416667 115.473958 171.546875 114.875 172.067708 C 114.192708 172.630208 114.0625 172.677083 113.71875 172.416667 C 113.505208 172.244792 112.864583 172.114583 112.307292 172.114583 C 111.239583 172.114583 110.552083 172.505208 110.125 173.375 C 109.911458 173.765625 109.78125 173.807292 109.442708 173.635417 C 109.229167 173.505208 108.713542 173.416667 108.333333 173.416667 C 107.348958 173.416667 106.109375 174.677083 106.109375 175.630208 C 106.109375 176.192708 106.192708 176.322917 106.838542 176.411458 C 108.078125 176.630208 112.911458 176.973958 117.572917 177.192708 C 125.697917 177.583333 126.59375 177.625 126.59375 177.453125 C 126.59375 177.322917 126.338542 176.973958 126.036458 176.583333 C 125.479167 175.932292 125.479167 175.890625 125.822917 175.239583 C 126.208333 174.458333 126.25 173.505208 125.953125 172.635417 C 125.78125 172.15625 125.78125 171.942708 126.083333 171.635417 C 126.510417 171.15625 126.510417 170.505208 126.125 169.942708 C 125.911458 169.640625 125.65625 169.552083 125.015625 169.682292 C 124.416667 169.770833 123.947917 169.682292 123.307292 169.333333 C 122.666667 168.984375 122.151042 168.901042 121.46875 168.984375 C 120.739583 169.072917 120.401042 168.984375 120.015625 168.682292 C 119.333333 168.119792 118.645833 168.161458 117.921875 168.723958 Z M 117.911458 168.729167 " transform="matrix(0.75,0,0,0.75,0,0)"/>
<path style="fill-rule:nonzero;fill-opacity:1;stroke-width:1;stroke-linecap:butt;stroke-linejoin:miter;stroke:rgb(0%,0%,0%);stroke-opacity:1;stroke-miterlimit:4;" fill="#204742" d="M 135.270833 168.942708 C 134.588542 169.244792 134.072917 170.072917 134.072917 170.895833 C 134.072917 171.546875 133.989583 171.677083 133.604167 171.546875 C 133.005208 171.375 131.895833 171.807292 131.635417 172.286458 C 131.25 173.026042 131.380208 173.848958 132.020833 174.5 C 132.536458 175.020833 132.578125 175.28125 132.536458 176.234375 C 132.494792 176.885417 132.578125 177.447917 132.666667 177.494792 C 133.223958 177.796875 155.588542 176.364583 156.057292 175.973958 C 156.098958 175.932292 155.973958 175.625 155.760417 175.364583 C 155.291667 174.583333 153.791667 174.020833 152.854167 174.192708 C 152.296875 174.322917 152.125 174.28125 152.125 173.973958 C 152.125 173.411458 151.270833 172.760417 150.5 172.760417 C 149.6875 172.760417 148.791667 173.541667 148.791667 174.192708 C 148.791667 174.541667 148.75 174.541667 148.234375 174.104167 C 147.9375 173.84375 147.338542 173.583333 146.953125 173.541667 C 146.354167 173.411458 146.182292 173.239583 145.927083 172.458333 C 145.541667 171.375 144.432292 170.505208 143.40625 170.505208 C 142.979167 170.505208 142.635417 170.375 142.635417 170.286458 C 142.635417 170.15625 142.380208 169.807292 142.078125 169.505208 C 141.348958 168.723958 140.197917 168.723958 139.598958 169.505208 C 139.041667 170.197917 138.317708 170.197917 137.588542 169.505208 C 136.989583 168.854167 135.963542 168.635417 135.28125 168.942708 Z M 135.270833 168.942708 " transform="matrix(0.75,0,0,0.75,0,0)"/>
<path style="fill-rule:nonzero;fill-opacity:1;stroke-width:1;stroke-linecap:butt;stroke-linejoin:miter;stroke:rgb(0%,0%,0%);stroke-opacity:1;stroke-miterlimit:4;" fill="#000000" d="M 102.432292 175.84375 C 102.6875 175.932292 103.5 176.104167 104.3125 176.145833 C 105.640625 176.276042 105.682292 176.276042 105.208333 175.973958 C 104.911458 175.802083 104.098958 175.671875 103.328125 175.671875 C 102.432292 175.671875 102.171875 175.760417 102.432292 175.84375 Z M 102.432292 175.84375 " transform="matrix(0.75,0,0,0.75,0,0)"/>
<path style="fill-rule:nonzero;fill-opacity:1;stroke-width:1;stroke-linecap:butt;stroke-linejoin:miter;stroke:rgb(0%,0%,0%);stroke-opacity:1;stroke-miterlimit:4;" fill="#000000" d="M 128.385417 176.015625 C 128.088542 176.234375 127.916667 176.578125 127.916667 177.015625 C 127.916667 177.666667 127.916667 177.666667 129.072917 177.625 C 130.015625 177.583333 130.229167 177.494792 130.270833 177.104167 C 130.442708 176.104167 129.244792 175.411458 128.390625 176.020833 Z M 128.385417 176.015625 " transform="matrix(0.75,0,0,0.75,0,0)"/>
</g>
</svg>
