<svg width="21" height="20" viewBox="0 0 21 20" fill="none" xmlns="http://www.w3.org/2000/svg">
<g clip-path="url(#clip0_9_576)">
<path d="M10.5898 18.75C10.4987 18.75 10.4141 18.737 10.3359 18.7109C10.2448 18.6719 10.1667 18.6198 10.1016 18.5547L3.12891 11.8359C3.11589 11.8099 2.97266 11.6602 2.69922 11.3867C2.42578 11.1133 2.13281 10.7552 1.82031 10.3125C1.50781 9.85677 1.22786 9.32943 0.980469 8.73047C0.720052 8.13151 0.589844 7.5 0.589844 6.83594C0.589844 6.01562 0.713542 5.27995 0.960938 4.62891C1.19531 3.99089 1.54036 3.45052 1.99609 3.00781C2.46484 2.55208 3.02474 2.20703 3.67578 1.97266C4.33984 1.72526 5.08854 1.60156 5.92188 1.60156C6.89844 1.60156 7.8099 1.89453 8.65625 2.48047C9.5026 3.06641 10.1471 3.58073 10.5898 4.02344C11.0326 3.58073 11.6771 3.06641 12.5234 2.48047C13.3698 1.89453 14.2812 1.60156 15.2578 1.60156C16.0911 1.60156 16.8398 1.72526 17.5039 1.97266C18.1549 2.20703 18.7083 2.54557 19.1641 2.98828C19.6328 3.44401 19.9844 3.99089 20.2188 4.62891C20.4661 5.27995 20.5898 6.01562 20.5898 6.83594C20.5898 7.5 20.4596 8.13151 20.1992 8.73047C19.9518 9.32943 19.6719 9.85677 19.3594 10.3125C19.0339 10.7682 18.7409 11.1328 18.4805 11.4062L18.0312 11.8555L11.0781 18.5547C11.013 18.6198 10.9414 18.6654 10.8633 18.6914C10.7721 18.7305 10.681 18.75 10.5898 18.75Z" fill="#EFC368"/>
</g>
<defs>
<clipPath id="clip0_9_576">
<rect width="20" height="20" fill="white" transform="matrix(1 0 0 -1 0.589844 20)"/>
</clipPath>
</defs>
</svg>
