<svg width="20" height="19" viewBox="0 0 20 19" fill="none" xmlns="http://www.w3.org/2000/svg">
<path d="M13.5166 9.57324C13.5166 8.71387 13.2087 7.97624 12.5928 7.36035C11.9769 6.74447 11.2393 6.43652 10.3799 6.43652C9.50618 6.43652 8.76855 6.74447 8.16699 7.36035C7.55111 7.97624 7.24316 8.71387 7.24316 9.57324C7.24316 10.4469 7.54395 11.1846 8.14551 11.7861C8.76139 12.402 9.50618 12.71 10.3799 12.71C11.2393 12.71 11.9769 12.4092 12.5928 11.8076C13.2087 11.1917 13.5166 10.4469 13.5166 9.57324ZM15.2139 9.57324C15.2139 10.2464 15.085 10.8766 14.8271 11.4639C14.5837 12.0511 14.2471 12.5596 13.8174 12.9893C13.3734 13.4333 12.8577 13.7842 12.2705 14.042C11.6833 14.2855 11.0531 14.4072 10.3799 14.4072C9.70671 14.4072 9.0765 14.2855 8.48926 14.042C7.90202 13.7842 7.39355 13.4404 6.96387 13.0107C6.51986 12.5667 6.16895 12.0511 5.91113 11.4639C5.66764 10.8766 5.5459 10.2464 5.5459 9.57324C5.5459 8.90007 5.66764 8.26986 5.91113 7.68262C6.16895 7.09538 6.5127 6.58691 6.94238 6.15723C7.38639 5.71322 7.90202 5.36947 8.48926 5.12598C9.0765 4.86816 9.70671 4.73926 10.3799 4.73926C11.0531 4.73926 11.6833 4.86816 12.2705 5.12598C12.8577 5.36947 13.3662 5.70605 13.7959 6.13574C14.2399 6.57975 14.5837 7.09538 14.8271 7.68262C15.085 8.26986 15.2139 8.90007 15.2139 9.57324ZM16.5459 4.5459C16.5459 4.861 16.4385 5.12598 16.2236 5.34082C15.9945 5.55566 15.7223 5.66309 15.4072 5.66309C15.0921 5.66309 14.8271 5.55566 14.6123 5.34082C14.3975 5.12598 14.29 4.861 14.29 4.5459C14.29 4.23079 14.3975 3.96582 14.6123 3.75098C14.8271 3.52181 15.0921 3.40723 15.4072 3.40723C15.7223 3.40723 15.9873 3.51465 16.2021 3.72949C16.4313 3.95866 16.5459 4.23079 16.5459 4.5459ZM10.3799 1.83887H9.1123C8.59668 1.82454 8.07389 1.82454 7.54395 1.83887C7.014 1.86751 6.50553 1.90332 6.01855 1.94629C5.53158 2.00358 5.13053 2.09668 4.81543 2.22559C4.60059 2.31152 4.40723 2.40462 4.23535 2.50488C4.06348 2.61947 3.89876 2.7627 3.74121 2.93457C3.56934 3.10645 3.43327 3.27116 3.33301 3.42871C3.21842 3.60059 3.11816 3.79395 3.03223 4.00879C2.90332 4.32389 2.81022 4.72493 2.75293 5.21191C2.69564 5.69889 2.65983 6.20736 2.64551 6.7373C2.63118 7.26725 2.62402 7.79004 2.62402 8.30566C2.63835 8.80697 2.64551 9.22949 2.64551 9.57324C2.64551 9.91699 2.63835 10.3395 2.62402 10.8408C2.62402 11.3564 2.63118 11.8792 2.64551 12.4092C2.65983 12.9391 2.69564 13.4476 2.75293 13.9346C2.81022 14.4215 2.90332 14.8226 3.03223 15.1377C3.11816 15.3525 3.21126 15.5459 3.31152 15.7178C3.42611 15.8896 3.56934 16.0544 3.74121 16.2119C3.89876 16.3838 4.06348 16.5199 4.23535 16.6201C4.40723 16.7347 4.60059 16.835 4.81543 16.9209C5.13053 17.0498 5.53158 17.1429 6.01855 17.2002C6.50553 17.2575 7.014 17.2933 7.54395 17.3076C8.07389 17.3219 8.59668 17.3291 9.1123 17.3291C9.61361 17.3148 10.0361 17.3076 10.3799 17.3076C10.7236 17.3076 11.1462 17.3148 11.6475 17.3291C12.1631 17.3291 12.6859 17.3219 13.2158 17.3076C13.7458 17.2933 14.2542 17.2575 14.7412 17.2002C15.2282 17.1429 15.6292 17.0498 15.9443 16.9209C16.1592 16.835 16.3454 16.7419 16.5029 16.6416C16.6748 16.527 16.8467 16.3838 17.0186 16.2119C17.1904 16.0544 17.3265 15.8896 17.4268 15.7178C17.5413 15.5459 17.6416 15.3525 17.7275 15.1377C17.8564 14.8226 17.9495 14.4215 18.0068 13.9346C18.0498 13.4476 18.0785 12.9391 18.0928 12.4092C18.1214 11.8792 18.1286 11.3564 18.1143 10.8408V8.30566C18.1286 7.79004 18.1286 7.26725 18.1143 6.7373C18.0856 6.20736 18.0498 5.69889 18.0068 5.21191C17.9495 4.72493 17.8564 4.32389 17.7275 4.00879C17.6416 3.79395 17.5485 3.60775 17.4482 3.4502C17.3337 3.27832 17.1904 3.10645 17.0186 2.93457C16.8467 2.7627 16.682 2.62663 16.5244 2.52637C16.3525 2.41178 16.1592 2.31152 15.9443 2.22559C15.6292 2.09668 15.2282 2.00358 14.7412 1.94629C14.2542 1.90332 13.7458 1.87467 13.2158 1.86035C12.6859 1.83171 12.1631 1.82454 11.6475 1.83887H10.3799ZM19.8115 9.57324C19.8115 10.2321 19.8115 10.8838 19.8115 11.5283C19.7972 12.1729 19.7757 12.8174 19.7471 13.4619C19.7041 14.221 19.5824 14.93 19.3818 15.5889C19.167 16.262 18.7803 16.8708 18.2217 17.415C17.6631 17.9736 17.0544 18.3604 16.3955 18.5752C15.7367 18.79 15.0277 18.9118 14.2686 18.9404C13.624 18.9834 12.9795 19.0049 12.335 19.0049H8.4248L6.49121 18.9404C5.7321 18.9118 5.02311 18.79 4.36426 18.5752C3.69108 18.3604 3.08236 17.9736 2.53809 17.415C1.97949 16.8708 1.59277 16.2692 1.37793 15.6104C1.16309 14.9372 1.04134 14.221 1.0127 13.4619C0.969727 12.8174 0.948242 12.1729 0.948242 11.5283V7.63965L1.0127 5.68457C1.04134 4.92546 1.16309 4.21647 1.37793 3.55762C1.59277 2.89876 1.97949 2.29004 2.53809 1.73145C3.08236 1.17285 3.68392 0.793295 4.34277 0.592773C5.01595 0.37793 5.7321 0.249023 6.49121 0.206055C7.13574 0.177408 7.78027 0.163086 8.4248 0.163086C9.06934 0.148764 9.72103 0.141602 10.3799 0.141602C11.0244 0.141602 11.6689 0.141602 12.3135 0.141602C12.9723 0.155924 13.624 0.177408 14.2686 0.206055C15.0277 0.249023 15.7367 0.370768 16.3955 0.571289C17.0544 0.786133 17.6631 1.17285 18.2217 1.73145C18.7803 2.29004 19.1598 2.89876 19.3604 3.55762C19.5752 4.21647 19.7041 4.92546 19.7471 5.68457C19.7757 6.3291 19.79 6.97363 19.79 7.61816C19.8044 8.27702 19.8115 8.92871 19.8115 9.57324Z" fill="#EFC368"/>
</svg>
