<svg width="10" height="17" viewBox="0 0 10 17" fill="none" xmlns="http://www.w3.org/2000/svg">
<g clip-path="url(#clip0_9_660)">
<path d="M7.48879 5.91957C7.48879 5.2842 7.26485 4.74778 6.81696 4.3103C6.36907 3.86242 5.83265 3.63848 5.2077 3.63848C4.57232 3.63848 4.03069 3.85721 3.58281 4.29468C3.13492 4.74257 2.91098 5.2842 2.91098 5.91957C2.91098 6.54453 3.13492 7.08095 3.58281 7.52883C4.03069 7.97672 4.57232 8.20066 5.2077 8.20066C5.83265 8.20066 6.36907 7.97672 6.81696 7.52883C7.26485 7.08095 7.48879 6.54453 7.48879 5.91957ZM9.76988 5.91957C9.76988 6.19038 9.74905 6.4612 9.70739 6.73201C9.66572 7.01324 9.5876 7.27364 9.47303 7.51321L6.22325 14.419C6.12951 14.6169 5.98889 14.7731 5.8014 14.8877C5.61392 15.0023 5.41601 15.0596 5.2077 15.0596C4.98896 15.0596 4.78585 15.0023 4.59836 14.8877C4.41087 14.7731 4.27026 14.6169 4.17652 14.419L0.926738 7.51321C0.812162 7.27364 0.734042 7.01845 0.692379 6.74764C0.650715 6.46641 0.629883 6.19038 0.629883 5.91957C0.629883 5.2842 0.749666 4.69049 0.989233 4.13844C1.2288 3.5864 1.55169 3.10205 1.95792 2.68542C2.37456 2.26878 2.8641 1.94067 3.42657 1.70111C3.97861 1.46154 4.57232 1.34176 5.2077 1.34176C5.83265 1.34176 6.42636 1.46154 6.98882 1.70111C7.54087 1.94067 8.02 2.26878 8.42622 2.68542C8.84286 3.10205 9.17097 3.5864 9.41053 4.13844C9.6501 4.69049 9.76988 5.2842 9.76988 5.91957Z" fill="#214842"/>
</g>
<defs>
<clipPath id="clip0_9_660">
<rect width="9.14" height="16" fill="white" transform="matrix(1 0 0 -1 0.629883 16.0601)"/>
</clipPath>
</defs>
</svg>
