<svg width="16" height="16" viewBox="0 0 16 16" fill="none" xmlns="http://www.w3.org/2000/svg">
<g clip-path="url(#clip0_9_52)">
<path d="M10.8418 7.57812C10.8418 7.02604 10.7376 6.50521 10.5293 6.01562C10.321 5.52604 10.0345 5.10417 9.66992 4.75C9.30534 4.38542 8.88346 4.09896 8.4043 3.89062C7.91471 3.68229 7.39388 3.57812 6.8418 3.57812C6.28971 3.57812 5.77409 3.68229 5.29492 3.89062C4.80534 4.09896 4.38346 4.38021 4.0293 4.73438C3.66471 5.09896 3.37305 5.52604 3.1543 6.01562C2.94596 6.50521 2.8418 7.02604 2.8418 7.57812C2.8418 8.13021 2.94596 8.64583 3.1543 9.125C3.37305 9.61458 3.65951 10.0365 4.01367 10.3906C4.37826 10.7552 4.80534 11.0417 5.29492 11.25C5.77409 11.4688 6.28971 11.5781 6.8418 11.5781C7.39388 11.5781 7.91471 11.4688 8.4043 11.25C8.88346 11.0417 9.30534 10.7604 9.66992 10.4062C10.0345 10.0417 10.321 9.61458 10.5293 9.125C10.7376 8.64583 10.8418 8.13021 10.8418 7.57812ZM15.4199 15C15.4199 15.3125 15.3105 15.5781 15.0918 15.7969C14.8626 16.026 14.5918 16.1406 14.2793 16.1406C14.123 16.1406 13.9772 16.1146 13.8418 16.0625C13.696 16 13.571 15.9115 13.4668 15.7969L10.4043 12.75C9.88346 13.1146 9.32096 13.3906 8.7168 13.5781C8.10221 13.7656 7.47721 13.8594 6.8418 13.8594C5.97721 13.8594 5.16471 13.6927 4.4043 13.3594C3.63346 13.0365 2.9668 12.5885 2.4043 12.0156C1.83138 11.4427 1.38346 10.776 1.06055 10.0156C0.727214 9.25521 0.560547 8.44271 0.560547 7.57812C0.560547 6.70312 0.727214 5.88542 1.06055 5.125C1.38346 4.36458 1.82617 3.69792 2.38867 3.125C2.96159 2.55208 3.63346 2.10417 4.4043 1.78125C5.16471 1.44792 5.97721 1.28125 6.8418 1.28125C7.7168 1.28125 8.53451 1.44792 9.29492 1.78125C10.0553 2.10417 10.7168 2.55208 11.2793 3.125C11.8522 3.69792 12.3053 4.36458 12.6387 5.125C12.972 5.88542 13.1387 6.70312 13.1387 7.57812C13.1387 8.20312 13.0449 8.81771 12.8574 9.42188C12.6595 10.0365 12.3835 10.6094 12.0293 11.1406L15.0918 14.2031C15.196 14.2969 15.2741 14.4115 15.3262 14.5469C15.3887 14.6927 15.4199 14.8438 15.4199 15Z" fill="#214842"/>
</g>
<defs>
<clipPath id="clip0_9_52">
<rect width="14.86" height="16" fill="white" transform="matrix(1 0 0 -1 0.560059 16)"/>
</clipPath>
</defs>
</svg>
