<svg width="14" height="13" viewBox="0 0 14 13" fill="none" xmlns="http://www.w3.org/2000/svg">
<path d="M13.489 10.2788C13.489 10.4351 13.4578 10.6434 13.3953 10.9038C13.3328 11.1642 13.2703 11.3674 13.2078 11.5132C13.114 11.7319 12.9578 11.9142 12.739 12.0601C12.5203 12.2163 12.3119 12.3517 12.114 12.4663C11.8536 12.6017 11.588 12.7111 11.3171 12.7944C11.0463 12.8778 10.7598 12.9194 10.4578 12.9194C10.0411 12.9194 9.64526 12.8517 9.27026 12.7163C8.88485 12.5809 8.49943 12.4403 8.11401 12.2944C7.84318 12.2007 7.57756 12.0965 7.31714 11.9819C7.05672 11.8569 6.80151 11.7163 6.55151 11.5601C6.17651 11.3205 5.78589 11.034 5.37964 10.7007C4.97339 10.3674 4.57756 10.0132 4.19214 9.63818C3.80672 9.25277 3.44735 8.85693 3.11401 8.45068C2.78068 8.04443 2.49943 7.65381 2.27026 7.27881C2.11401 7.02881 1.9786 6.7736 1.86401 6.51318C1.73901 6.25277 1.62443 5.98714 1.52026 5.71631C1.38485 5.33089 1.24943 4.95068 1.11401 4.57568C0.978597 4.19027 0.910889 3.78923 0.910889 3.37256C0.910889 3.07048 0.947347 2.78402 1.02026 2.51318C1.1036 2.24235 1.21818 1.97673 1.36401 1.71631C1.4786 1.50798 1.60881 1.29964 1.75464 1.09131C1.91089 0.872559 2.09839 0.716309 2.31714 0.622559C2.46297 0.560059 2.6661 0.497559 2.92651 0.435059C3.18693 0.372559 3.39526 0.341309 3.55151 0.341309C3.58276 0.341309 3.61401 0.341309 3.64526 0.341309C3.67651 0.351726 3.70776 0.362142 3.73901 0.372559C3.83276 0.403809 3.92131 0.502767 4.00464 0.669434C4.09839 0.836101 4.1661 0.961101 4.20776 1.04443C4.3536 1.30485 4.49422 1.56006 4.62964 1.81006C4.77547 2.07048 4.92131 2.32568 5.06714 2.57568C5.14006 2.69027 5.2286 2.81527 5.33276 2.95068C5.43693 3.09652 5.48901 3.23714 5.48901 3.37256C5.48901 3.64339 5.21818 3.95068 4.67651 4.29443C4.13485 4.6486 3.86401 4.95068 3.86401 5.20068C3.86401 5.31527 3.90568 5.44027 3.98901 5.57568C4.07235 5.72152 4.14526 5.85173 4.20776 5.96631C4.6661 6.77881 5.18693 7.47673 5.77026 8.06006C6.3536 8.64339 7.05151 9.15902 7.86401 9.60693C7.96818 9.66943 8.09318 9.74235 8.23901 9.82568C8.38485 9.91943 8.51506 9.96631 8.62964 9.96631C8.86922 9.96631 9.1661 9.69548 9.52026 9.15381C9.87443 8.61214 10.1869 8.34131 10.4578 8.34131C10.5932 8.34131 10.7286 8.39339 10.864 8.49756C11.0098 8.60173 11.1401 8.69027 11.2546 8.76318C11.5046 8.90902 11.7546 9.04964 12.0046 9.18506C12.2651 9.33089 12.5203 9.47152 12.7703 9.60693C12.864 9.65902 12.9942 9.72673 13.1609 9.81006C13.3276 9.90381 13.4265 9.99756 13.4578 10.0913C13.4682 10.1226 13.4734 10.1538 13.4734 10.1851C13.4838 10.2163 13.489 10.2476 13.489 10.2788Z" fill="#214842"/>
</svg>
