<svg width="24" height="25" viewBox="0 0 24 25" fill="none" xmlns="http://www.w3.org/2000/svg">
<g clip-path="url(#clip0_9_433)">
<path d="M19.584 23.0584C18.1022 23.2033 16.697 22.8514 15.3804 21.9197C15.3517 21.899 15.3229 21.8808 15.2942 21.8601C16.089 23.1024 16.1225 24.2748 16.539 24.9399C15.4043 24.4042 14.4707 23.7313 13.8507 22.8488C13.7574 22.9885 13.7215 23.1671 13.8172 23.4207C13.032 22.7271 12.4312 21.6298 11.9524 20.2607C11.9476 20.2711 11.9452 20.2814 11.9405 20.2892C11.4641 21.6453 10.8656 22.7323 10.0828 23.4207C10.181 23.1671 10.1451 22.9885 10.0493 22.8488C9.42932 23.7313 8.49572 24.4042 7.36104 24.9399C7.77757 24.2774 7.81109 23.1024 8.60584 21.8601C8.56514 21.8886 8.52445 21.9197 8.48615 21.943C7.17911 22.854 5.78829 23.2008 4.31848 23.0584C4.56983 22.9627 4.73979 22.8048 4.79964 22.5719C2.34117 22.7013 1.12031 21.811 0 20.8379C0.0406952 20.8405 0.0837842 20.8456 0.126873 20.8482C1.57993 20.9207 3.97616 19.505 6.62853 18.8451C6.61656 18.8399 6.6022 18.8347 6.59262 18.8295C3.61709 17.6183 1.9031 15.685 1.01977 13.2807C1.17537 13.4645 1.35012 13.5577 1.54402 13.5603C0.608034 10.7134 0.677455 8.71029 1.37885 7.23768C1.49375 8.99756 6.66204 10.6254 8.90028 14.3367C8.89071 14.2927 8.88113 14.2539 8.87395 14.2099C8.32576 11.7486 8.47418 9.01309 9.16121 6.07047C9.20908 6.73301 9.31202 7.16263 9.69982 7.43179C9.91048 4.83079 10.643 2.73965 11.95 1.20752C13.2571 2.73965 13.9896 4.83079 14.2002 7.43179C14.588 7.16263 14.691 6.73301 14.7388 6.07047C15.4378 9.06485 15.5791 11.8444 14.9974 14.3367C15.0309 14.2771 15.0668 14.2228 15.1027 14.1633C15.1051 14.1607 15.1051 14.1581 15.1075 14.1529C17.2691 10.7807 21.8318 9.16061 22.4494 7.5379V7.53531C22.4901 7.43696 22.5116 7.33603 22.5188 7.23509C23.2202 8.7077 23.2896 10.7109 22.3536 13.5577C22.5475 13.5525 22.7247 13.4593 22.8779 13.2782C21.9898 15.6928 20.2662 17.6313 17.2691 18.8425C17.3074 18.8528 17.3457 18.8632 17.3816 18.8709C20.0651 19.5645 22.4781 20.9983 23.8977 20.8353C22.7797 21.8084 21.5589 22.6987 19.098 22.5693C19.1627 22.8074 19.3302 22.9627 19.584 23.0584Z" fill="#258F67"/>
<path d="M12.3627 17.6131C12.3627 17.6131 9.45119 18.3187 6.85934 18.5384C3.80271 17.3288 2.04202 15.398 1.13462 12.9969C1.29446 13.1804 1.47398 13.2734 1.67316 13.276C0.711666 10.4329 0.782979 8.43235 1.50348 6.96167C1.50594 6.96167 1.79857 16.5431 12.3627 17.6131Z" fill="#214842"/>
<path d="M11.7116 17.7263C11.7116 17.7263 10.0667 17.2501 8.77415 14.013C8.25027 11.5384 8.39211 8.78798 9.04868 5.82935C9.09443 6.4955 9.1928 6.92745 9.56341 7.19807C9.76473 4.58293 10.4648 2.4804 11.7138 0.939941C11.2174 7.32818 10.904 13.4223 11.7116 17.7263Z" fill="#214842"/>
<path d="M22.3487 7.49194C20.8856 13.7408 17.0985 16.7299 12.0293 17.911C13.0596 17.6092 14.1769 15.9625 15.1296 14.1518C15.132 14.1492 15.132 14.1466 15.1343 14.1414C17.2608 10.7517 21.7419 9.1257 22.3487 7.49194Z" fill="#214842"/>
<path d="M23.9996 20.3403C19.2292 20.8509 15.026 20.3355 12.0508 17.6216C12.0508 17.6216 14.9231 18.4056 17.4842 18.5207C20.1675 19.1608 22.5778 20.4913 23.9996 20.3403Z" fill="#214842"/>
<path d="M16.4192 24.5494C14.6332 22.4495 13.2143 20.1171 12.0742 17.6033C13.1894 18.9982 14.3113 20.4109 15.3222 21.5681C15.295 21.5477 15.2678 21.5298 15.2406 21.5094C15.9931 22.7382 16.0249 23.8954 16.4192 24.5494Z" fill="#214842"/>
<path d="M12.2037 20.0856C11.7042 21.4242 11.0767 22.4972 10.256 23.1767C10.3589 22.9263 10.3213 22.7501 10.2209 22.6121C9.57084 23.4832 8.59201 24.1475 7.40234 24.6763C9.34998 22.4844 10.9713 20.175 12.2137 17.7302C12.3342 18.1875 12.299 19.0944 12.2037 20.0856Z" fill="#214842"/>
<path d="M12.0016 17.8359C11.9154 17.9425 10.0093 20.2548 8.54143 21.8934C7.23401 22.809 5.84277 23.1575 4.37251 23.0145C4.62394 22.9182 4.79395 22.7596 4.85382 22.5255C2.39461 22.6555 1.17339 21.7608 0.0527344 20.7828C0.0934418 20.7854 0.136544 20.7906 0.179646 20.7932C4.51858 21.1626 8.54862 20.4603 12.0016 17.8359Z" fill="#214842"/>
<path d="M12.811 17.7392C12.811 18.2189 12.4464 18.6074 11.9963 18.6074C11.5462 18.6074 11.1816 18.2189 11.1816 17.7392C11.1816 17.2595 11.5462 16.8708 11.9963 16.8708C12.4464 16.8708 12.811 17.2595 12.811 17.7392Z" fill="#214842"/>
</g>
<defs>
<clipPath id="clip0_9_433">
<rect width="24" height="24" fill="white" transform="translate(0 0.939941)"/>
</clipPath>
</defs>
</svg>
