<svg width="20" height="21" viewBox="0 0 20 21" fill="none" xmlns="http://www.w3.org/2000/svg">
<g clip-path="url(#clip0_9_107)">
<path d="M19.0474 8.09229C19.0474 8.19645 19.0213 8.29411 18.9692 8.38525C18.9041 8.4764 18.8325 8.55452 18.7544 8.61963L14.7114 12.5845L15.6685 18.1509V18.3853C15.6685 18.5285 15.6359 18.6522 15.5708 18.7563C15.4927 18.8735 15.3755 18.9321 15.2192 18.9321C15.1411 18.9321 15.063 18.9191 14.9849 18.8931C14.9067 18.867 14.8351 18.8345 14.77 18.7954L9.75049 16.1782L4.75049 18.7954C4.67236 18.8345 4.60075 18.867 4.53564 18.8931C4.45752 18.9191 4.37939 18.9321 4.30127 18.9321C4.14502 18.9321 4.02783 18.88 3.94971 18.7759C3.87158 18.6587 3.83252 18.5285 3.83252 18.3853C3.83252 18.3462 3.83252 18.3071 3.83252 18.2681C3.84554 18.229 3.85205 18.1899 3.85205 18.1509L4.80908 12.5845L0.746582 8.61963C0.681478 8.55452 0.622884 8.4764 0.570801 8.38525C0.505697 8.29411 0.473145 8.19645 0.473145 8.09229C0.473145 7.92301 0.538249 7.79932 0.668457 7.72119C0.811686 7.64307 0.954915 7.59749 1.09814 7.58447L6.70361 6.76416L9.20361 1.68604C9.2557 1.58187 9.32731 1.4777 9.41846 1.37354C9.52262 1.26937 9.6333 1.21729 9.75049 1.21729C9.8807 1.21729 9.99137 1.26937 10.0825 1.37354C10.1867 1.4777 10.2583 1.58187 10.2974 1.68604L12.8169 6.76416L18.4224 7.58447C18.5526 7.59749 18.6893 7.64307 18.8325 7.72119C18.9757 7.79932 19.0474 7.92301 19.0474 8.09229Z" fill="#EFC368"/>
</g>
<defs>
<clipPath id="clip0_9_107">
<rect width="18.58" height="20" fill="white" transform="matrix(1 0 0 -1 0.470215 20.6899)"/>
</clipPath>
</defs>
</svg>
