<svg width="19" height="21" viewBox="0 0 19 21" fill="none" xmlns="http://www.w3.org/2000/svg">
<g clip-path="url(#clip0_9_109)">
<path d="M12.7485 12.0767L16.1665 8.75635L11.4399 8.07275L9.33057 3.79541L7.22119 8.07275L2.51416 8.75635L5.93213 12.0767L5.11182 16.7642L9.33057 14.5571L13.5493 16.7642L12.7485 12.0767ZM18.6274 8.09229C18.6274 8.19645 18.6014 8.29411 18.5493 8.38525C18.4842 8.4764 18.4126 8.55452 18.3345 8.61963L14.2915 12.5845L15.2485 18.1509V18.3853C15.2485 18.5285 15.216 18.6522 15.1509 18.7563C15.0728 18.8735 14.9556 18.9321 14.7993 18.9321C14.7212 18.9321 14.6431 18.9191 14.5649 18.8931C14.4868 18.867 14.4152 18.8345 14.3501 18.7954L9.33057 16.1782L4.33057 18.7954C4.25244 18.8345 4.18083 18.867 4.11572 18.8931C4.0376 18.9191 3.95947 18.9321 3.88135 18.9321C3.7251 18.9321 3.60791 18.88 3.52979 18.7759C3.45166 18.6587 3.4126 18.5285 3.4126 18.3853C3.4126 18.3462 3.4126 18.3071 3.4126 18.2681C3.42562 18.229 3.43213 18.1899 3.43213 18.1509L4.38916 12.5845L0.32666 8.61963C0.261556 8.55452 0.202962 8.4764 0.150879 8.38525C0.0857747 8.29411 0.0532227 8.19645 0.0532227 8.09229C0.0532227 7.92301 0.118327 7.79932 0.248535 7.72119C0.391764 7.64307 0.534993 7.59749 0.678223 7.58447L6.28369 6.76416L8.78369 1.68604C8.83577 1.58187 8.90739 1.4777 8.99854 1.37354C9.1027 1.26937 9.21338 1.21729 9.33057 1.21729C9.46077 1.21729 9.57145 1.26937 9.6626 1.37354C9.76676 1.4777 9.83838 1.58187 9.87744 1.68604L12.397 6.76416L18.0024 7.58447C18.1327 7.59749 18.2694 7.64307 18.4126 7.72119C18.5558 7.79932 18.6274 7.92301 18.6274 8.09229Z" fill="#EFC368"/>
</g>
<defs>
<clipPath id="clip0_9_109">
<rect width="18.58" height="20" fill="white" transform="matrix(1 0 0 -1 0.050293 20.6899)"/>
</clipPath>
</defs>
</svg>
