<svg width="70" height="40" viewBox="0 0 282 158" fill="none" xmlns="http://www.w3.org/2000/svg">
<g clip-path="url(#clip0_237_556)">
<path fill-rule="evenodd" clip-rule="evenodd" d="M231.017 116.768C230.699 116.57 230.342 116.57 230.025 116.768L209.346 128.615L188.707 116.689C188.39 116.53 188.033 116.57 187.715 116.728C187.636 116.768 187.556 116.808 187.517 116.887L167.037 128.615L146.874 116.927L146.914 92.6773L125.759 80.4337V57.7692C125.759 57.2145 125.322 56.7786 124.767 56.7786C124.211 56.7786 123.774 57.2145 123.774 57.7692V80.4733L103.533 92.0829L83.37 80.3941L83.4097 55.7088L62.2946 43.4652V20.8007C62.2946 20.246 61.858 19.8101 61.3024 19.8101C60.7467 19.8101 60.3101 20.246 60.3101 20.8007V43.4652L39.1553 55.6295L39.1156 81.1469L60.3498 93.4301L60.3101 116.57H38.0043C37.4487 116.57 37.0121 117.006 37.0121 117.561C37.0121 118.115 37.4487 118.551 38.0043 118.551H60.3498V140.819C60.3498 141.374 60.7864 141.81 61.3421 141.81C61.8977 141.81 62.3343 141.374 62.3343 140.819V117.561C62.3343 117.521 62.3244 117.481 62.3145 117.442C62.3045 117.402 62.2946 117.362 62.2946 117.323L62.3343 93.7471L82.4969 82.1771L102.62 93.8263L102.58 117.045L96.309 120.651L97.1028 122.474L103.652 118.71L124.727 130.914L125.243 130.597V130.636L146.001 118.749L166.56 130.636C166.878 130.795 167.235 130.795 167.553 130.636L188.311 118.749L208.87 130.636C209.029 130.715 209.187 130.755 209.386 130.755C209.545 130.755 209.743 130.715 209.862 130.636L230.541 118.789L245.98 128.061L247.012 126.357L231.017 116.768ZM41.0514 57.2709L61.0514 45.8101L81.0121 57.3493L80.9727 80.3493L60.9727 91.8101L41.0121 80.2709L41.0514 57.2709ZM124.051 82.8101L104.051 94.2709L104.012 117.271L123.973 128.81L143.973 117.349L144.012 94.3493L124.051 82.8101Z" fill="#9EBCA6"/>
<path d="M46.7833 13.6329C45.7118 13.0392 44.8387 12.2081 44.2434 11.1791C43.6481 10.1105 43.3306 8.96282 43.3306 7.6568C43.3306 6.35077 43.6481 5.16348 44.2434 4.13449C44.8387 3.06592 45.7118 2.27439 46.7833 1.68074C47.8549 1.08709 49.0851 0.810059 50.4345 0.810059C51.4266 0.810059 52.3791 0.968365 53.2125 1.32455C54.0856 1.64117 54.8 2.15566 55.3953 2.78889L54.4825 3.69915C53.4109 2.63058 52.1013 2.07651 50.4742 2.07651C49.4026 2.07651 48.4105 2.31397 47.5374 2.82846C46.6643 3.30338 45.9499 3.97618 45.4737 4.84686C44.9578 5.67797 44.7196 6.66738 44.7196 7.69637C44.7196 8.76494 44.9578 9.71477 45.4737 10.5459C45.9896 11.377 46.6643 12.0498 47.5374 12.5643C48.4105 13.0392 49.4026 13.3163 50.4742 13.3163C52.1013 13.3163 53.4506 12.7622 54.4825 11.6936L55.3953 12.6039C54.8 13.2371 54.0856 13.7516 53.2125 14.0682C52.3394 14.4244 51.4266 14.5827 50.3948 14.5827C49.0454 14.5036 47.8549 14.2265 46.7833 13.6329Z" fill="#9EBCA6"/>
<path d="M69.8015 0.849609V14.3848H68.3728V8.13169H59.8799V14.3848H58.4512V0.849609H59.8799V6.86524H68.3728V0.849609H69.8015Z" fill="#9EBCA6"/>
<path d="M77.5402 15.4139C78.0561 15.9284 78.3339 16.5616 78.3339 17.3532C78.3339 17.9072 78.2149 18.4217 77.9371 18.8571C77.6593 19.2924 77.2624 19.6486 76.7465 19.8861C76.2306 20.1235 75.5559 20.2818 74.8018 20.2818C74.0875 20.2818 73.4128 20.1631 72.7778 19.9256C72.1429 19.6882 71.6269 19.4111 71.2698 19.0154L71.746 18.2238C72.0635 18.5404 72.5 18.8175 73.0556 19.0549C73.6113 19.2528 74.1669 19.3716 74.8018 19.3716C75.5956 19.3716 76.2306 19.2133 76.6671 18.8571C77.1037 18.5009 77.3418 18.026 77.3418 17.4323C77.3418 16.8387 77.1037 16.3637 76.6671 16.0076C76.2306 15.6514 75.5559 15.4931 74.6828 15.4931H73.9684V14.7411L76.6671 11.3375H71.6666V10.4272H77.9768V11.1396L75.1987 14.6224C76.2306 14.662 77.0243 14.939 77.5402 15.4139Z" fill="#9EBCA6"/>
<path d="M249.422 142.336C248.35 141.742 247.477 140.911 246.882 139.882C246.286 138.813 245.969 137.666 245.969 136.359C245.969 135.053 246.286 133.866 246.882 132.837C247.477 131.769 248.35 130.977 249.422 130.383C250.493 129.79 251.723 129.513 253.073 129.513C254.065 129.513 255.017 129.671 255.851 130.027C256.724 130.344 257.438 130.858 258.034 131.492L257.121 132.402C256.049 131.333 254.74 130.779 253.113 130.779C252.041 130.779 251.049 131.017 250.176 131.531C249.303 132.006 248.588 132.679 248.112 133.55C247.596 134.381 247.358 135.37 247.358 136.399C247.358 137.468 247.596 138.417 248.112 139.249C248.628 140.08 249.303 140.752 250.176 141.267C251.049 141.742 252.041 142.019 253.113 142.019C254.74 142.019 256.089 141.465 257.121 140.396L258.034 141.307C257.438 141.94 256.724 142.454 255.851 142.771C254.978 143.127 254.065 143.285 253.033 143.285C251.723 143.206 250.533 142.929 249.422 142.336Z" fill="#9EBCA6"/>
<path d="M272.479 129.552V143.087H271.051V136.834H262.558V143.087H261.129V129.552H262.558V135.568H271.051V129.552H272.479Z" fill="#9EBCA6"/>
<path d="M280.218 144.116C280.734 144.631 281.012 145.264 281.012 146.056C281.012 146.61 280.893 147.124 280.615 147.56C280.337 147.995 279.94 148.351 279.425 148.589C278.909 148.826 278.234 148.984 277.48 148.984C276.766 148.984 276.091 148.866 275.456 148.628C274.821 148.391 274.305 148.114 273.948 147.718L274.424 146.926C274.742 147.243 275.178 147.52 275.734 147.758C276.289 147.955 276.845 148.074 277.48 148.074C278.274 148.074 278.909 147.916 279.345 147.56C279.782 147.203 280.02 146.729 280.02 146.135C280.02 145.541 279.782 145.066 279.345 144.71C278.909 144.354 278.234 144.196 277.361 144.196H276.647V143.444L279.345 140.04H274.345V139.13H280.655V139.842L277.877 143.325C278.909 143.365 279.663 143.642 280.218 144.116Z" fill="#9EBCA6"/>
<path fill-rule="evenodd" clip-rule="evenodd" d="M107.911 48.4489C108.498 49.5006 109.358 50.3501 110.414 50.9569C111.509 51.5636 112.722 51.8468 114.012 51.8064C115.342 51.8064 116.554 51.5232 117.61 50.9164C118.666 50.3096 119.526 49.4602 120.113 48.4084C120.699 47.3567 121.012 46.1431 121.012 44.8083C121.012 43.4734 120.738 42.3003 120.113 41.2081C119.526 40.1563 118.666 39.3069 117.61 38.7001C116.515 38.0933 115.342 37.8101 114.012 37.8101C112.682 37.8101 111.509 38.1338 110.414 38.7405C109.358 39.3473 108.498 40.1968 107.911 41.2485C107.325 42.3003 107.012 43.5138 107.012 44.8487C107.012 46.1836 107.325 47.3971 107.911 48.4489ZM119.286 47.1376C118.828 47.9897 118.179 48.6482 117.338 49.113C116.498 49.5778 115.582 49.8101 114.55 49.8101C113.519 49.8101 112.564 49.5778 111.724 49.113C110.884 48.6482 110.234 47.9897 109.738 47.1376C109.241 46.2855 109.012 45.3559 109.012 44.3101C109.012 43.2644 109.241 42.3348 109.738 41.4827C110.234 40.6306 110.884 39.9721 111.724 39.5073C112.564 39.0425 113.519 38.8101 114.55 38.8101C115.582 38.8101 116.498 39.0425 117.338 39.5073C118.179 39.9721 118.828 40.6306 119.286 41.4827C119.783 42.3348 120.012 43.2644 120.012 44.3101C120.012 45.3559 119.745 46.2855 119.286 47.1376Z" fill="#9EBCA6"/>
<path d="M135.919 37.814V51.3492H134.49V45.0961H125.997V51.3492H124.569V37.814H125.997V43.8297H134.49V37.814H135.919Z" fill="#9EBCA6"/>
<path fill-rule="evenodd" clip-rule="evenodd" d="M65.9115 127.442C66.4981 128.493 67.3584 129.342 68.4143 129.949C69.5093 130.555 70.6825 130.879 72.0121 130.798C73.3417 130.798 74.554 130.515 75.6098 129.908C76.6657 129.302 77.4869 128.493 78.1126 127.402C78.6992 126.351 79.0121 125.138 79.0121 123.804C79.0121 122.47 78.7383 121.297 78.1126 120.206C77.526 119.155 76.6657 118.306 75.6098 117.699C74.5149 117.093 73.3417 116.81 72.0121 116.81C70.6825 116.81 69.5093 117.133 68.4143 117.74C67.3584 118.346 66.4981 119.195 65.9115 120.246C65.3249 121.297 65.0121 122.51 65.0121 123.844C65.0121 125.178 65.3249 126.391 65.9115 127.442ZM77.2864 126.137C76.828 126.99 76.1787 127.648 75.3385 128.113C74.4982 128.578 73.5433 128.81 72.5503 128.81C71.519 128.81 70.5642 128.578 69.7239 128.113C68.8836 127.648 68.2343 126.99 67.7378 126.137C67.2412 125.285 67.0121 124.356 67.0121 123.31C67.0121 122.264 67.2412 121.335 67.7378 120.483C68.2343 119.63 68.8836 118.972 69.7239 118.507C70.5642 118.042 71.519 117.81 72.5503 117.81C73.5815 117.81 74.4982 118.042 75.3385 118.507C76.1787 118.972 76.828 119.63 77.2864 120.483C77.7829 121.335 78.0121 122.264 78.0121 123.31C78.0121 124.356 77.7447 125.285 77.2864 126.137Z" fill="#9EBCA6"/>
<path d="M93.9307 116.65V130.186H92.502V123.933H84.0091V130.186H82.5804V116.65H84.0091V122.666H92.502V116.65H93.9307Z" fill="#9EBCA6"/>
<path d="M11.7403 110.674V124.21H10.3116V117.956H1.81872V124.21H0.390015V110.674H1.81872V116.69H10.3116V110.674H11.7403Z" fill="#9EBCA6"/>
<path d="M20.1141 124.407C20.63 124.882 20.8681 125.516 20.8681 126.268C20.8681 126.782 20.7491 127.257 20.4713 127.692C20.1935 128.128 19.8363 128.444 19.3204 128.682C18.8044 128.919 18.2092 129.038 17.4551 129.038C16.7804 129.038 16.1455 128.919 15.5502 128.721C14.9549 128.484 14.4786 128.207 14.0818 127.851L14.558 127.099C14.8755 127.415 15.2724 127.692 15.7883 127.89C16.3042 128.088 16.8598 128.207 17.4551 128.207C18.2092 128.207 18.8044 128.048 19.241 127.692C19.6775 127.376 19.876 126.901 19.876 126.307C19.876 125.713 19.6775 125.278 19.241 124.962C18.8044 124.645 18.2092 124.487 17.3361 124.487H16.6614V123.774L19.241 120.529H14.4389V119.658H20.4713V120.331L17.8123 123.655C18.8441 123.655 19.5982 123.933 20.1141 124.407Z" fill="#9EBCA6"/>
<path d="M26.4244 123.418C25.3528 122.824 24.4797 121.993 23.8844 120.964C23.2891 119.896 22.9716 118.748 22.9716 117.442C22.9716 116.136 23.2891 114.949 23.8844 113.92C24.4797 112.851 25.3528 112.06 26.4244 111.466C27.4959 110.872 28.7262 110.595 30.0755 110.595C31.0677 110.595 32.0201 110.754 32.8535 111.11C33.7266 111.426 34.441 111.941 35.0363 112.574L34.1235 113.484C33.052 112.416 31.7423 111.862 30.1152 111.862C29.0437 111.862 28.0515 112.099 27.1784 112.614C26.3053 113.089 25.5909 113.761 25.1147 114.632C24.5988 115.463 24.3607 116.453 24.3607 117.482C24.3607 118.55 24.5988 119.5 25.1147 120.331C25.6306 121.202 26.3053 121.835 27.1784 122.35C28.0515 122.824 29.0437 123.101 30.1152 123.101C31.7423 123.101 33.0917 122.547 34.1235 121.479L35.0363 122.389C34.441 123.022 33.7266 123.537 32.8535 123.853C31.9804 124.21 31.0677 124.368 30.0358 124.368C28.7262 124.328 27.4959 124.012 26.4244 123.418Z" fill="#9EBCA6"/>
<path d="M54.8 139.446V152.982H53.3713V146.729H44.8784V152.982H43.4497V139.446H44.8784V145.462H53.3713V139.446H54.8Z" fill="#9EBCA6"/>
<path d="M63.1738 153.18C63.6897 153.654 63.9278 154.288 63.9278 155.04C63.9278 155.554 63.8088 156.029 63.531 156.464C63.2532 156.86 62.896 157.216 62.3801 157.454C61.8641 157.691 61.2688 157.81 60.5148 157.81C59.8401 157.81 59.2052 157.691 58.6099 157.493C58.0146 157.256 57.5383 156.979 57.1415 156.623L57.6177 155.871C57.9352 156.187 58.3321 156.464 58.848 156.662C59.3639 156.86 59.9195 156.979 60.5148 156.979C61.2688 156.979 61.8641 156.821 62.3007 156.464C62.7372 156.148 62.9357 155.673 62.9357 155.079C62.9357 154.486 62.7372 154.05 62.3007 153.734C61.8641 153.417 61.2688 153.259 60.3957 153.259H59.7211V152.546L62.3007 149.301H57.4986V148.43H63.531V149.103L60.872 152.428C61.9038 152.428 62.6579 152.705 63.1738 153.18Z" fill="#9EBCA6"/>
<path d="M69.484 152.19C68.4125 151.597 67.5394 150.765 66.9441 149.736C66.3488 148.668 66.0312 147.52 66.0312 146.214C66.0312 144.908 66.3488 143.721 66.9441 142.692C67.5394 141.623 68.4125 140.832 69.484 140.238C70.5556 139.644 71.7859 139.367 73.1352 139.367C74.1273 139.367 75.0798 139.526 75.9132 139.882C76.7863 140.198 77.5007 140.713 78.096 141.346L77.1832 142.256C76.1117 141.188 74.802 140.634 73.1749 140.634C72.1033 140.634 71.1112 140.871 70.2381 141.386C69.365 141.861 68.6506 142.533 68.1744 143.404C67.6585 144.235 67.4203 145.225 67.4203 146.254C67.4203 147.322 67.6585 148.272 68.1744 149.103C68.6903 149.974 69.365 150.607 70.2381 151.122C71.1112 151.597 72.1033 151.874 73.1749 151.874C74.802 151.874 76.1513 151.319 77.1832 150.251L78.096 151.161C77.5007 151.794 76.7863 152.309 75.9132 152.626C75.0401 152.982 74.1273 153.14 73.0955 153.14C71.7859 153.1 70.5556 152.784 69.484 152.19Z" fill="#9EBCA6"/>
</g>
<defs>
<clipPath id="clip0_237_556">
<rect width="281" height="157" fill="white" transform="translate(0.390015 0.810059)"/>
</clipPath>
</defs>
</svg>
