<svg width="21" height="17" viewBox="0 0 21 17" fill="none" xmlns="http://www.w3.org/2000/svg">
<path d="M20.1716 2.5791C19.8995 2.98014 19.5987 3.35254 19.2693 3.69629C18.9255 4.04004 18.5603 4.35514 18.1736 4.6416C18.1879 4.72754 18.1951 4.81348 18.1951 4.89941V5.15723C18.1951 6.46061 17.9444 7.78548 17.4431 9.13184C16.9561 10.4639 16.24 11.667 15.2947 12.7412C14.335 13.8298 13.1534 14.7178 11.7498 15.4053C10.3461 16.0928 8.73478 16.4365 6.91577 16.4365C5.78426 16.4365 4.70288 16.279 3.67163 15.9639C2.64038 15.6488 1.68791 15.2119 0.814209 14.6533C0.971761 14.6676 1.12931 14.6748 1.28687 14.6748C1.44442 14.6891 1.60913 14.6963 1.78101 14.6963C2.69767 14.6963 3.57137 14.5531 4.4021 14.2666C5.24715 13.9658 6.01343 13.5433 6.70093 12.999C5.82723 12.9847 5.05379 12.7197 4.38062 12.2041C3.70744 11.6885 3.24194 11.0368 2.98413 10.249C3.11304 10.2777 3.23478 10.292 3.34937 10.292C3.47827 10.3063 3.60718 10.3135 3.73608 10.3135C3.92228 10.3135 4.10132 10.3063 4.27319 10.292C4.44507 10.2633 4.61694 10.2275 4.78882 10.1846C3.87215 9.99837 3.11304 9.5472 2.51147 8.83105C1.90991 8.10059 1.60913 7.25553 1.60913 6.2959V6.25293C1.86694 6.39616 2.14624 6.51074 2.44702 6.59668C2.7478 6.68262 3.06291 6.73275 3.39233 6.74707C2.86239 6.389 2.43986 5.9235 2.12476 5.35059C1.79533 4.76335 1.63062 4.12598 1.63062 3.43848C1.63062 3.0804 1.67358 2.73665 1.75952 2.40723C1.85978 2.06348 1.99585 1.74121 2.16772 1.44043C2.6547 2.04199 3.19897 2.58626 3.80054 3.07324C4.4021 3.57454 5.04663 4.00423 5.73413 4.3623C6.43595 4.72038 7.17358 4.99967 7.94702 5.2002C8.72046 5.41504 9.52254 5.54395 10.3533 5.58691C10.3103 5.44368 10.2817 5.30046 10.2673 5.15723C10.253 4.99967 10.2458 4.84212 10.2458 4.68457C10.2458 3.59603 10.6326 2.66504 11.406 1.8916C12.1794 1.10384 13.1176 0.709961 14.2205 0.709961C14.7791 0.709961 15.309 0.824544 15.8103 1.05371C16.3116 1.28288 16.7413 1.59082 17.0994 1.97754C17.5577 1.8916 17.9945 1.76986 18.4099 1.6123C18.8396 1.44043 19.2478 1.23991 19.6345 1.01074C19.477 1.46908 19.2478 1.88444 18.947 2.25684C18.6462 2.64355 18.2882 2.95866 17.8728 3.20215C18.2738 3.15918 18.6677 3.08757 19.0544 2.9873C19.4412 2.87272 19.8136 2.73665 20.1716 2.5791Z" fill="#EFC368"/>
</svg>
