<svg width="20" height="20" viewBox="0 0 20 20" fill="none" xmlns="http://www.w3.org/2000/svg">
<path d="M12.354 10.54C12.4543 10.54 12.8481 10.7191 13.5356 11.0771C14.2375 11.4352 14.6099 11.6501 14.6528 11.7217C14.6672 11.7503 14.6743 11.779 14.6743 11.8076V11.915C14.6743 12.0583 14.6528 12.2087 14.6099 12.3662C14.5669 12.5381 14.5168 12.6956 14.4595 12.8389C14.3162 13.1826 14.0155 13.4548 13.5571 13.6553C13.0988 13.8701 12.6906 13.9775 12.3325 13.9775C12.0461 13.9775 11.6522 13.8844 11.1509 13.6982C10.6496 13.4977 10.27 13.333 10.0122 13.2041C9.12419 12.8031 8.38656 12.2803 7.79932 11.6357C7.19775 10.9912 6.632 10.2751 6.10205 9.4873C5.87288 9.14355 5.67236 8.77116 5.50049 8.37012C5.31429 7.95475 5.22119 7.53223 5.22119 7.10254V7.0166C5.23551 6.60124 5.31429 6.24316 5.45752 5.94238C5.61507 5.6416 5.84424 5.34798 6.14502 5.06152C6.23096 4.97559 6.32406 4.91113 6.42432 4.86816C6.52458 4.8252 6.63916 4.80371 6.76807 4.80371C6.854 4.80371 6.93278 4.81087 7.00439 4.8252C7.07601 4.83952 7.15479 4.84668 7.24072 4.84668C7.39827 4.84668 7.5057 4.87533 7.56299 4.93262C7.62028 4.98991 7.68473 5.09733 7.75635 5.25488C7.79932 5.35514 7.92822 5.69889 8.14307 6.28613C8.35791 6.87337 8.46533 7.19564 8.46533 7.25293C8.46533 7.4821 8.3221 7.71842 8.03564 7.96191C7.74919 8.2054 7.60596 8.39876 7.60596 8.54199C7.60596 8.57064 7.61312 8.59928 7.62744 8.62793L7.67041 8.71387C7.81364 9.00033 7.99984 9.29395 8.229 9.59473C8.45817 9.90983 8.68734 10.1748 8.9165 10.3896C9.20296 10.6618 9.49658 10.891 9.79736 11.0771C10.1125 11.2777 10.4419 11.4639 10.7856 11.6357C10.8286 11.6644 10.8716 11.6859 10.9146 11.7002C10.9575 11.7145 11.0005 11.7217 11.0435 11.7217C11.2297 11.7217 11.4517 11.5283 11.7095 11.1416C11.9816 10.7406 12.1965 10.54 12.354 10.54ZM9.86182 17.0498C10.9217 17.0498 11.9172 16.8421 12.8481 16.4268C13.7935 16.0257 14.6099 15.4814 15.2974 14.7939C15.9992 14.0921 16.5506 13.2686 16.9517 12.3232C17.367 11.3923 17.5747 10.3968 17.5747 9.33691C17.5747 8.27702 17.367 7.27441 16.9517 6.3291C16.5506 5.39811 16.0063 4.58171 15.3188 3.87988C14.617 3.17806 13.7935 2.62663 12.8481 2.22559C11.9172 1.82454 10.9217 1.62402 9.86182 1.62402C8.80192 1.62402 7.79932 1.82454 6.854 2.22559C5.92301 2.62663 5.11377 3.17806 4.42627 3.87988C3.72445 4.58171 3.16585 5.39811 2.75049 6.3291C2.34945 7.27441 2.14893 8.27702 2.14893 9.33691C2.14893 10.139 2.27067 10.9268 2.51416 11.7002C2.77197 12.4736 3.14437 13.1898 3.63135 13.8486L2.64307 16.7061L5.62939 15.7607C6.24528 16.1761 6.91846 16.4912 7.64893 16.7061C8.37939 16.9352 9.11702 17.0498 9.86182 17.0498ZM9.86182 0.0771484C11.1366 0.0771484 12.3325 0.320638 13.4497 0.807617C14.5812 1.2946 15.5623 1.95345 16.3931 2.78418C17.2381 3.62923 17.9041 4.61035 18.3911 5.72754C18.8781 6.85905 19.1216 8.06217 19.1216 9.33691C19.1216 10.6117 18.8781 11.8076 18.3911 12.9248C17.9041 14.0563 17.2453 15.0374 16.4146 15.8682C15.5695 16.7132 14.5812 17.3792 13.4497 17.8662C12.3325 18.3532 11.1366 18.5967 9.86182 18.5967C9.07406 18.5967 8.30062 18.4964 7.5415 18.2959C6.78239 18.0954 6.05908 17.8089 5.37158 17.4365L0.258301 19.0693L1.93408 14.1064C1.49007 13.3903 1.16064 12.624 0.945801 11.8076C0.716634 10.9912 0.602051 10.1676 0.602051 9.33691C0.602051 8.06217 0.84554 6.85905 1.33252 5.72754C1.8195 4.61035 2.47835 3.63639 3.30908 2.80566C4.15413 1.96061 5.13525 1.2946 6.25244 0.807617C7.38395 0.320638 8.58708 0.0771484 9.86182 0.0771484Z" fill="#EFC368"/>
</svg>
